<?xml version="1.0" encoding="utf-8"?>
<!-- Generator: Adobe Illustrator 24.0.0, SVG Export Plug-In . SVG Version: 6.00 Build 0)  -->
<svg version="1.1" id="Capa_1" xmlns="http://www.w3.org/2000/svg" xmlns:xlink="http://www.w3.org/1999/xlink" x="0px" y="0px"
	 viewBox="0 0 120 120" style="enable-background:new 0 0 120 120;" xml:space="preserve">
<style type="text/css">
	.st0{fill:#151F43;}
	.st1{fill:none;stroke:#8795B2;stroke-miterlimit:10;}
	.st2{fill:#008E70;stroke:#008E70;stroke-width:2;stroke-miterlimit:10;}
	.st3{fill:none;stroke:#8795B2;stroke-linecap:round;stroke-linejoin:round;stroke-miterlimit:10;}
	.st4{fill:none;stroke:#008E70;stroke-width:5;stroke-miterlimit:10;}
	.st5{fill:url(#SVGID_1_);}
	.st6{fill:url(#SVGID_2_);}
	.st7{fill:url(#SVGID_3_);}
	.st8{fill:url(#SVGID_4_);}
	.st9{fill:url(#SVGID_5_);}
	.st10{fill:url(#SVGID_6_);}
	.st11{fill:url(#SVGID_7_);}
	.st12{fill:url(#SVGID_8_);}
	.st13{fill:url(#SVGID_9_);}
	.st14{fill:url(#SVGID_10_);}
	.st15{fill:url(#SVGID_11_);}
	.st16{fill:url(#SVGID_12_);}
	.st17{fill:url(#SVGID_13_);}
	.st18{fill:url(#SVGID_14_);}
	.st19{fill:url(#SVGID_15_);}
	.st20{fill:url(#SVGID_16_);}
	.st21{fill:url(#SVGID_17_);}
	.st22{fill:url(#SVGID_18_);}
	.st23{fill:url(#SVGID_19_);}
	.st24{fill:url(#SVGID_20_);}
	.st25{fill:url(#SVGID_21_);}
	.st26{fill:url(#SVGID_22_);}
	.st27{fill:url(#SVGID_23_);}
	.st28{fill:url(#SVGID_24_);}
	.st29{fill:url(#SVGID_25_);}
	.st30{fill:url(#SVGID_26_);}
	.st31{fill:url(#SVGID_27_);}
	.st32{fill:url(#SVGID_28_);}
	.st33{fill:url(#SVGID_29_);}
	.st34{fill:url(#SVGID_30_);}
	.st35{fill:url(#SVGID_31_);}
	.st36{fill:url(#SVGID_32_);}
	.st37{fill:url(#SVGID_33_);}
	.st38{fill:url(#SVGID_34_);}
	.st39{fill:url(#SVGID_35_);}
	.st40{fill:url(#SVGID_36_);}
	.st41{fill:url(#SVGID_37_);}
	.st42{fill:url(#SVGID_38_);}
	.st43{fill:url(#SVGID_39_);}
	.st44{fill:url(#SVGID_40_);}
	.st45{fill:url(#SVGID_41_);}
	.st46{fill:url(#SVGID_42_);}
	.st47{fill:url(#SVGID_43_);}
	.st48{fill:url(#SVGID_44_);}
	.st49{fill:url(#SVGID_45_);}
	.st50{fill:url(#SVGID_46_);}
	.st51{fill:url(#SVGID_47_);}
	.st52{fill:url(#SVGID_48_);}
	.st53{fill:url(#SVGID_49_);}
	.st54{fill:url(#SVGID_50_);}
	.st55{fill:url(#SVGID_51_);}
	.st56{fill:url(#SVGID_52_);}
	.st57{fill:url(#SVGID_53_);}
	.st58{fill:url(#SVGID_54_);}
	.st59{fill:url(#SVGID_55_);}
	.st60{fill:url(#SVGID_56_);}
	.st61{fill:url(#SVGID_57_);}
	.st62{fill:url(#SVGID_58_);}
	.st63{fill:#8795B2;}
	.st64{fill:#FFFFFF;}
	.st65{fill:none;stroke:#008E70;stroke-width:2;stroke-miterlimit:10;}
	.st66{fill:url(#SVGID_59_);}
	.st67{fill:url(#SVGID_60_);}
	.st68{fill:url(#SVGID_61_);}
	.st69{fill:url(#SVGID_62_);}
	.st70{fill:url(#SVGID_63_);}
	.st71{fill:url(#SVGID_64_);}
	.st72{fill:url(#SVGID_65_);}
	.st73{fill:url(#SVGID_66_);}
	.st74{fill:url(#SVGID_67_);}
	.st75{fill:url(#SVGID_68_);}
	.st76{fill:url(#SVGID_69_);}
	.st77{fill:url(#SVGID_70_);}
	.st78{fill:url(#SVGID_71_);}
	.st79{fill:url(#SVGID_72_);}
	.st80{fill:url(#SVGID_73_);}
	.st81{fill:url(#SVGID_74_);}
	.st82{fill:url(#SVGID_75_);}
	.st83{fill:url(#SVGID_76_);}
	.st84{fill:url(#SVGID_77_);}
	.st85{fill:url(#SVGID_78_);}
	.st86{fill:url(#SVGID_79_);}
	.st87{fill:url(#SVGID_80_);}
	.st88{fill:url(#SVGID_81_);}
	.st89{fill:url(#SVGID_82_);}
	.st90{fill:url(#SVGID_83_);}
	.st91{fill:url(#SVGID_84_);}
	.st92{fill:url(#SVGID_85_);}
	.st93{fill:url(#SVGID_86_);}
	.st94{fill:url(#SVGID_87_);}
	.st95{fill:url(#SVGID_88_);}
	.st96{fill:url(#SVGID_89_);}
	.st97{fill:url(#SVGID_90_);}
	.st98{fill:url(#SVGID_91_);}
	.st99{fill:url(#SVGID_92_);}
	.st100{fill:url(#SVGID_93_);}
	.st101{fill:url(#SVGID_94_);}
	.st102{fill:url(#SVGID_95_);}
	.st103{fill:url(#SVGID_96_);}
	.st104{fill:url(#SVGID_97_);}
	.st105{fill:url(#SVGID_98_);}
	.st106{fill:url(#SVGID_99_);}
	.st107{fill:url(#SVGID_100_);}
	.st108{fill:url(#SVGID_101_);}
	.st109{fill:url(#SVGID_102_);}
	.st110{fill:url(#SVGID_103_);}
	.st111{fill:url(#SVGID_104_);}
	.st112{fill:url(#SVGID_105_);}
	.st113{fill:url(#SVGID_106_);}
	.st114{fill:url(#SVGID_107_);}
	.st115{fill:url(#SVGID_108_);}
	.st116{fill:url(#SVGID_109_);}
	.st117{fill:url(#SVGID_110_);}
	.st118{fill:url(#SVGID_111_);}
	.st119{fill:url(#SVGID_112_);}
	.st120{fill:url(#SVGID_113_);}
	.st121{fill:url(#SVGID_114_);}
	.st122{fill:url(#SVGID_115_);}
	.st123{fill:url(#SVGID_116_);}
	.st124{fill:#008E70;stroke:#008E70;stroke-width:2.3879;stroke-miterlimit:10;}
	.st125{clip-path:url(#SVGID_120_);}
	.st126{clip-path:url(#SVGID_124_);}
	.st127{fill:#008E70;}
</style>
<g>
	<path class="st127" d="M114.8,63.1c-0.2,1.2-0.4,2.4-0.7,3.5c-0.6,2.6-1.8,4.9-3.4,7c-0.1,0.1-0.2,0.3-0.4,0.4
		c-0.2-1.2-0.4-2.3-0.7-3.5c-0.2-0.8-0.6-1.6-0.6-2.4c0-0.8,0.5-1.5,0.8-2.3c2.6-8.6-3.1-17.8-12-19.2c-0.9-0.1-1.8-0.2-2.7-0.2
		c-0.8,0-1.6,0-2.4,0c0.1-1.4,0.3-2.7,0.4-4c0.4-7.8-2.3-14.3-8.3-19.4c-4.1-3.4-8.9-5.2-14.2-5.5c-5.8-0.4-11.3,0.9-16.2,4.1
		c-4.1,2.7-7,6.4-8.7,11.1c-0.3,1-0.7,1.9-1.1,3c-0.6-0.6-1.1-1.1-1.5-1.6c-1.3-1.4-2.8-2.6-4.6-3.3c-6.6-2.6-14,1.8-14.9,8.8
		c-0.1,1-0.1,2,0,3.1c0,0.4-0.1,0.6-0.5,0.7c-2.6,0.6-5,1.6-7,3.3c-5.4,4.5-7.6,10.3-5.9,17.1c1.6,6.8,6.1,10.9,12.9,12.5
		c1.2,0.3,2.5,0.4,3.8,0.4c10.1,0,20.3,0,30.4,0c0.2,0,0.4,0,0.6,0c0.1,1.5,0.3,2.9,0.4,4.4c-0.1,0-0.3,0-0.4,0
		c-10.4,0-20.9,0-31.3,0c-10.2,0-18.8-7.1-20.8-17.2c-2-9.9,3.6-20.1,13.1-23.7c0.4-0.1,0.5-0.4,0.6-0.7c0.7-7.2,6.5-13,13.7-13.7
		c3.4-0.3,6.6,0.4,9.6,2.2c0.1,0.1,0.2,0.1,0.4,0.2c0.2-0.4,0.4-0.7,0.6-1.1c3.6-6.4,9.1-10.6,16.1-12.7c6.7-2,13.5-1.9,20,0.7
		c9.2,3.6,15.1,10.3,17.4,20.1c0.5,2.1,0.6,4.3,0.6,6.4c0,0.2,0,0.4,0,0.5c1.2,0.3,2.3,0.4,3.4,0.8c7.7,2.6,12.3,7.9,13.7,15.9
		c0.1,0.4,0.1,0.9,0.2,1.3C114.8,61.2,114.8,62.2,114.8,63.1z"/>
	<path class="st127" d="M114.1,103.7c-1,1-2.1,2.1-3.1,3.1c-2.1-2.1-4.3-4.3-6.5-6.5c-2.2-2.2-4.3-4.3-6.5-6.5
		c-5.8,4.5-12.3,6-19.4,4.2c-5.3-1.3-9.6-4.4-12.7-9c-6.1-9-4.6-21.4,3.5-28.5c8.5-7.5,20.6-7.6,29.2-0.1
		c8.4,7.3,10.3,20.6,2.5,30.3C105.5,95.1,109.8,99.4,114.1,103.7z M84.1,94.4c9.7,0,17.5-7.8,17.6-17.5c0-9.7-7.8-17.6-17.5-17.6
		c-9.7,0-17.5,7.8-17.6,17.5C66.6,86.5,74.4,94.4,84.1,94.4z"/>
</g>
</svg>
