<?xml version="1.0" encoding="utf-8"?>
<!-- Generator: Adobe Illustrator 24.0.0, SVG Export Plug-In . SVG Version: 6.00 Build 0)  -->
<svg version="1.1" id="Capa_1" xmlns="http://www.w3.org/2000/svg" xmlns:xlink="http://www.w3.org/1999/xlink" x="0px" y="0px"
	 viewBox="0 0 120 120" style="enable-background:new 0 0 120 120;" xml:space="preserve">
<style type="text/css">
	.st0{fill:#151F43;}
	.st1{fill:none;stroke:#8795B2;stroke-miterlimit:10;}
	.st2{fill:#008E70;stroke:#008E70;stroke-width:2;stroke-miterlimit:10;}
	.st3{fill:none;stroke:#8795B2;stroke-linecap:round;stroke-linejoin:round;stroke-miterlimit:10;}
	.st4{fill:none;stroke:#008E70;stroke-width:5;stroke-miterlimit:10;}
	.st5{fill:url(#SVGID_1_);}
	.st6{fill:url(#SVGID_2_);}
	.st7{fill:url(#SVGID_3_);}
	.st8{fill:url(#SVGID_4_);}
	.st9{fill:url(#SVGID_5_);}
	.st10{fill:url(#SVGID_6_);}
	.st11{fill:url(#SVGID_7_);}
	.st12{fill:url(#SVGID_8_);}
	.st13{fill:url(#SVGID_9_);}
	.st14{fill:url(#SVGID_10_);}
	.st15{fill:url(#SVGID_11_);}
	.st16{fill:url(#SVGID_12_);}
	.st17{fill:url(#SVGID_13_);}
	.st18{fill:url(#SVGID_14_);}
	.st19{fill:url(#SVGID_15_);}
	.st20{fill:url(#SVGID_16_);}
	.st21{fill:url(#SVGID_17_);}
	.st22{fill:url(#SVGID_18_);}
	.st23{fill:url(#SVGID_19_);}
	.st24{fill:url(#SVGID_20_);}
	.st25{fill:url(#SVGID_21_);}
	.st26{fill:url(#SVGID_22_);}
	.st27{fill:url(#SVGID_23_);}
	.st28{fill:url(#SVGID_24_);}
	.st29{fill:url(#SVGID_25_);}
	.st30{fill:url(#SVGID_26_);}
	.st31{fill:url(#SVGID_27_);}
	.st32{fill:url(#SVGID_28_);}
	.st33{fill:url(#SVGID_29_);}
	.st34{fill:url(#SVGID_30_);}
	.st35{fill:url(#SVGID_31_);}
	.st36{fill:url(#SVGID_32_);}
	.st37{fill:url(#SVGID_33_);}
	.st38{fill:url(#SVGID_34_);}
	.st39{fill:url(#SVGID_35_);}
	.st40{fill:url(#SVGID_36_);}
	.st41{fill:url(#SVGID_37_);}
	.st42{fill:url(#SVGID_38_);}
	.st43{fill:url(#SVGID_39_);}
	.st44{fill:url(#SVGID_40_);}
	.st45{fill:url(#SVGID_41_);}
	.st46{fill:url(#SVGID_42_);}
	.st47{fill:url(#SVGID_43_);}
	.st48{fill:url(#SVGID_44_);}
	.st49{fill:url(#SVGID_45_);}
	.st50{fill:url(#SVGID_46_);}
	.st51{fill:url(#SVGID_47_);}
	.st52{fill:url(#SVGID_48_);}
	.st53{fill:url(#SVGID_49_);}
	.st54{fill:url(#SVGID_50_);}
	.st55{fill:url(#SVGID_51_);}
	.st56{fill:url(#SVGID_52_);}
	.st57{fill:url(#SVGID_53_);}
	.st58{fill:url(#SVGID_54_);}
	.st59{fill:url(#SVGID_55_);}
	.st60{fill:url(#SVGID_56_);}
	.st61{fill:url(#SVGID_57_);}
	.st62{fill:url(#SVGID_58_);}
	.st63{fill:#8795B2;}
	.st64{fill:#FFFFFF;}
	.st65{fill:none;stroke:#008E70;stroke-width:2;stroke-miterlimit:10;}
	.st66{fill:url(#SVGID_59_);}
	.st67{fill:url(#SVGID_60_);}
	.st68{fill:url(#SVGID_61_);}
	.st69{fill:url(#SVGID_62_);}
	.st70{fill:url(#SVGID_63_);}
	.st71{fill:url(#SVGID_64_);}
	.st72{fill:url(#SVGID_65_);}
	.st73{fill:url(#SVGID_66_);}
	.st74{fill:url(#SVGID_67_);}
	.st75{fill:url(#SVGID_68_);}
	.st76{fill:url(#SVGID_69_);}
	.st77{fill:url(#SVGID_70_);}
	.st78{fill:url(#SVGID_71_);}
	.st79{fill:url(#SVGID_72_);}
	.st80{fill:url(#SVGID_73_);}
	.st81{fill:url(#SVGID_74_);}
	.st82{fill:url(#SVGID_75_);}
	.st83{fill:url(#SVGID_76_);}
	.st84{fill:url(#SVGID_77_);}
	.st85{fill:url(#SVGID_78_);}
	.st86{fill:url(#SVGID_79_);}
	.st87{fill:url(#SVGID_80_);}
	.st88{fill:url(#SVGID_81_);}
	.st89{fill:url(#SVGID_82_);}
	.st90{fill:url(#SVGID_83_);}
	.st91{fill:url(#SVGID_84_);}
	.st92{fill:url(#SVGID_85_);}
	.st93{fill:url(#SVGID_86_);}
	.st94{fill:url(#SVGID_87_);}
	.st95{fill:url(#SVGID_88_);}
	.st96{fill:url(#SVGID_89_);}
	.st97{fill:url(#SVGID_90_);}
	.st98{fill:url(#SVGID_91_);}
	.st99{fill:url(#SVGID_92_);}
	.st100{fill:url(#SVGID_93_);}
	.st101{fill:url(#SVGID_94_);}
	.st102{fill:url(#SVGID_95_);}
	.st103{fill:url(#SVGID_96_);}
	.st104{fill:url(#SVGID_97_);}
	.st105{fill:url(#SVGID_98_);}
	.st106{fill:url(#SVGID_99_);}
	.st107{fill:url(#SVGID_100_);}
	.st108{fill:url(#SVGID_101_);}
	.st109{fill:url(#SVGID_102_);}
	.st110{fill:url(#SVGID_103_);}
	.st111{fill:url(#SVGID_104_);}
	.st112{fill:url(#SVGID_105_);}
	.st113{fill:url(#SVGID_106_);}
	.st114{fill:url(#SVGID_107_);}
	.st115{fill:url(#SVGID_108_);}
	.st116{fill:url(#SVGID_109_);}
	.st117{fill:url(#SVGID_110_);}
	.st118{fill:url(#SVGID_111_);}
	.st119{fill:url(#SVGID_112_);}
	.st120{fill:url(#SVGID_113_);}
	.st121{fill:url(#SVGID_114_);}
	.st122{fill:url(#SVGID_115_);}
	.st123{fill:url(#SVGID_116_);}
	.st124{fill:#008E70;stroke:#008E70;stroke-width:2.3879;stroke-miterlimit:10;}
	.st125{clip-path:url(#SVGID_120_);}
	.st126{fill:#008E70;}
	.st127{fill:#F6D942;}
</style>
<g>
	<circle class="st127" cx="60" cy="60" r="53.1"/>
	<path d="M60.2,89.5C52,89.3,44.6,87.1,38,82.3c-5.9-4.3-10.2-9.7-12.9-16.5c-0.6-1.5-1.1-3.1-1.5-4.7c-0.2-0.6-0.1-1.4,0-2.1
		c0-0.2,0.2-0.6,0.5-0.7c0.2-0.1,0.6,0.2,0.7,0.4c0.4,0.6,0.8,1.3,0.9,2c1.3,5,3.7,9.6,7,13.6c3,3.7,6.7,6.6,10.9,8.9
		c3.2,1.7,6.6,2.9,10.2,3.5c7.9,1.4,15.4,0.3,22.6-3.4c3.2-1.6,6-3.7,8.5-6.2c3.5-3.5,6.3-7.5,8.1-12.1c0.6-1.5,1-3.2,1.6-4.7
		c0.2-0.6,0.5-1.1,0.8-1.6c0.1-0.2,0.5-0.4,0.6-0.3c0.2,0.1,0.4,0.4,0.5,0.6c0.2,1,0.1,2-0.2,2.9c-1.4,5.1-3.9,9.8-7.3,13.9
		c-3.3,4-7.4,7.2-12.1,9.6c-4.4,2.2-9.1,3.5-14,3.9c-0.5,0-1,0.1-1.5,0.1C61,89.4,60.5,89.4,60.2,89.5z"/>
	<path d="M42.4,46c0-1.9,0.4-4.1,1.6-6.1c0.2-0.3,0.4-0.6,0.6-0.9c1.5-1.7,3.4-1.7,4.9,0c1.1,1.3,1.7,2.9,2,4.6
		c0.5,2.8,0.3,5.5-0.7,8.1c-0.4,1-0.9,1.8-1.7,2.5c-1.2,1.1-2.7,1.1-3.9,0.1c-1-0.9-1.6-2-2-3.2C42.7,49.6,42.4,48,42.4,46z"/>
	<path d="M77.7,45.7c-0.1,3-0.4,5.2-1.7,7.2c-0.3,0.5-0.7,0.9-1.1,1.3c-1.2,1-2.6,1-3.8,0c-0.8-0.7-1.4-1.6-1.8-2.7
		c-1.4-3.8-1.3-7.5,0.3-11.2c0.4-0.8,0.9-1.6,1.7-2.1c1.1-0.8,2.5-0.8,3.6,0.1c1.3,1.1,1.9,2.5,2.3,4C77.4,43.8,77.6,45.1,77.7,45.7
		z"/>
</g>
</svg>
