<?xml version="1.0" encoding="utf-8"?>
<!-- Generator: Adobe Illustrator 24.0.0, SVG Export Plug-In . SVG Version: 6.00 Build 0)  -->
<svg version="1.1" id="Capa_1" xmlns="http://www.w3.org/2000/svg" xmlns:xlink="http://www.w3.org/1999/xlink" x="0px" y="0px"
	 viewBox="0 0 120 120" style="enable-background:new 0 0 120 120;" xml:space="preserve">
<style type="text/css">
	.st0{fill:#151F43;}
	.st1{fill:none;stroke:#8795B2;stroke-miterlimit:10;}
	.st2{fill:#008E70;stroke:#008E70;stroke-width:2;stroke-miterlimit:10;}
	.st3{fill:none;stroke:#8795B2;stroke-linecap:round;stroke-linejoin:round;stroke-miterlimit:10;}
	.st4{fill:none;stroke:#008E70;stroke-width:5;stroke-miterlimit:10;}
	.st5{fill:url(#SVGID_1_);}
	.st6{fill:url(#SVGID_2_);}
	.st7{fill:url(#SVGID_3_);}
	.st8{fill:url(#SVGID_4_);}
	.st9{fill:url(#SVGID_5_);}
	.st10{fill:url(#SVGID_6_);}
	.st11{fill:url(#SVGID_7_);}
	.st12{fill:url(#SVGID_8_);}
	.st13{fill:url(#SVGID_9_);}
	.st14{fill:url(#SVGID_10_);}
	.st15{fill:url(#SVGID_11_);}
	.st16{fill:url(#SVGID_12_);}
	.st17{fill:url(#SVGID_13_);}
	.st18{fill:url(#SVGID_14_);}
	.st19{fill:url(#SVGID_15_);}
	.st20{fill:url(#SVGID_16_);}
	.st21{fill:url(#SVGID_17_);}
	.st22{fill:url(#SVGID_18_);}
	.st23{fill:url(#SVGID_19_);}
	.st24{fill:url(#SVGID_20_);}
	.st25{fill:url(#SVGID_21_);}
	.st26{fill:url(#SVGID_22_);}
	.st27{fill:url(#SVGID_23_);}
	.st28{fill:url(#SVGID_24_);}
	.st29{fill:url(#SVGID_25_);}
	.st30{fill:url(#SVGID_26_);}
	.st31{fill:url(#SVGID_27_);}
	.st32{fill:url(#SVGID_28_);}
	.st33{fill:url(#SVGID_29_);}
	.st34{fill:url(#SVGID_30_);}
	.st35{fill:url(#SVGID_31_);}
	.st36{fill:url(#SVGID_32_);}
	.st37{fill:url(#SVGID_33_);}
	.st38{fill:url(#SVGID_34_);}
	.st39{fill:url(#SVGID_35_);}
	.st40{fill:url(#SVGID_36_);}
	.st41{fill:url(#SVGID_37_);}
	.st42{fill:url(#SVGID_38_);}
	.st43{fill:url(#SVGID_39_);}
	.st44{fill:url(#SVGID_40_);}
	.st45{fill:url(#SVGID_41_);}
	.st46{fill:url(#SVGID_42_);}
	.st47{fill:url(#SVGID_43_);}
	.st48{fill:url(#SVGID_44_);}
	.st49{fill:url(#SVGID_45_);}
	.st50{fill:url(#SVGID_46_);}
	.st51{fill:url(#SVGID_47_);}
	.st52{fill:url(#SVGID_48_);}
	.st53{fill:url(#SVGID_49_);}
	.st54{fill:url(#SVGID_50_);}
	.st55{fill:url(#SVGID_51_);}
	.st56{fill:url(#SVGID_52_);}
	.st57{fill:url(#SVGID_53_);}
	.st58{fill:url(#SVGID_54_);}
	.st59{fill:url(#SVGID_55_);}
	.st60{fill:url(#SVGID_56_);}
	.st61{fill:url(#SVGID_57_);}
	.st62{fill:url(#SVGID_58_);}
	.st63{fill:#8795B2;}
	.st64{fill:#FFFFFF;}
	.st65{fill:none;stroke:#008E70;stroke-width:2;stroke-miterlimit:10;}
	.st66{fill:url(#SVGID_59_);}
	.st67{fill:url(#SVGID_60_);}
	.st68{fill:url(#SVGID_61_);}
	.st69{fill:url(#SVGID_62_);}
	.st70{fill:url(#SVGID_63_);}
	.st71{fill:url(#SVGID_64_);}
	.st72{fill:url(#SVGID_65_);}
	.st73{fill:url(#SVGID_66_);}
	.st74{fill:url(#SVGID_67_);}
	.st75{fill:url(#SVGID_68_);}
	.st76{fill:url(#SVGID_69_);}
	.st77{fill:url(#SVGID_70_);}
	.st78{fill:url(#SVGID_71_);}
	.st79{fill:url(#SVGID_72_);}
	.st80{fill:url(#SVGID_73_);}
	.st81{fill:url(#SVGID_74_);}
	.st82{fill:url(#SVGID_75_);}
	.st83{fill:url(#SVGID_76_);}
	.st84{fill:url(#SVGID_77_);}
	.st85{fill:url(#SVGID_78_);}
	.st86{fill:url(#SVGID_79_);}
	.st87{fill:url(#SVGID_80_);}
	.st88{fill:url(#SVGID_81_);}
	.st89{fill:url(#SVGID_82_);}
	.st90{fill:url(#SVGID_83_);}
	.st91{fill:url(#SVGID_84_);}
	.st92{fill:url(#SVGID_85_);}
	.st93{fill:url(#SVGID_86_);}
	.st94{fill:url(#SVGID_87_);}
	.st95{fill:url(#SVGID_88_);}
	.st96{fill:url(#SVGID_89_);}
	.st97{fill:url(#SVGID_90_);}
	.st98{fill:url(#SVGID_91_);}
	.st99{fill:url(#SVGID_92_);}
	.st100{fill:url(#SVGID_93_);}
	.st101{fill:url(#SVGID_94_);}
	.st102{fill:url(#SVGID_95_);}
	.st103{fill:url(#SVGID_96_);}
	.st104{fill:url(#SVGID_97_);}
	.st105{fill:url(#SVGID_98_);}
	.st106{fill:url(#SVGID_99_);}
	.st107{fill:url(#SVGID_100_);}
	.st108{fill:url(#SVGID_101_);}
	.st109{fill:url(#SVGID_102_);}
	.st110{fill:url(#SVGID_103_);}
	.st111{fill:url(#SVGID_104_);}
	.st112{fill:url(#SVGID_105_);}
	.st113{fill:url(#SVGID_106_);}
	.st114{fill:url(#SVGID_107_);}
	.st115{fill:url(#SVGID_108_);}
	.st116{fill:url(#SVGID_109_);}
	.st117{fill:url(#SVGID_110_);}
	.st118{fill:url(#SVGID_111_);}
	.st119{fill:url(#SVGID_112_);}
	.st120{fill:url(#SVGID_113_);}
	.st121{fill:url(#SVGID_114_);}
	.st122{fill:url(#SVGID_115_);}
	.st123{fill:url(#SVGID_116_);}
	.st124{fill:#008E70;stroke:#008E70;stroke-width:2.3879;stroke-miterlimit:10;}
	.st125{clip-path:url(#SVGID_120_);}
	.st126{clip-path:url(#SVGID_124_);}
	.st127{fill:#008E70;}
</style>
<g>
	<path class="st127" d="M57.7,9.5c1.5,0,3.1,0,4.6,0c0.2,0,0.5,0.1,0.7,0.1c2.9,0.2,5.8,0.6,8.7,1.3c13.5,3.4,24,11,31.4,22.8
		c4,6.4,6.3,13.3,7.1,20.8c0.1,1.1,0.2,2.2,0.3,3.3c0,1.5,0,3.1,0,4.6c0,0.2-0.1,0.4-0.1,0.6c-0.2,4.1-0.9,8.1-2.2,12.1
		C104,88,96,97.8,84.1,104.4c-5.8,3.2-12,5.1-18.5,5.8c-1.1,0.1-2.1,0.2-3.2,0.3c-1.5,0-3,0-4.5,0c-0.2,0-0.4-0.1-0.6-0.1
		c-1-0.1-2.1-0.1-3.1-0.3c-6.1-0.8-11.8-2.6-17.2-5.4c-0.4-0.2-0.8-0.2-1.2-0.1c-6,1.5-12,3-18,4.5c-1.8,0.5-3.7,0.9-5.5,1.4
		c-0.3,0-0.6,0-0.9,0c-0.9-0.3-1.5-0.9-1.8-1.8c0-0.3,0-0.6,0-0.9c0,0,0.1-0.1,0.1-0.1c2.1-7.6,4.3-15.2,6.4-22.8
		c0.1-0.2,0-0.5-0.1-0.7c-0.4-0.7-0.8-1.5-1.1-2.2c-2.6-5.3-4.3-10.8-4.9-16.6c-0.1-1.1-0.2-2.2-0.3-3.3c0-1.5,0-3,0-4.5
		c0-0.2,0.1-0.4,0.1-0.6c0.2-3.7,0.8-7.4,1.9-10.9c3.9-13,11.6-22.9,23.3-29.8c6.1-3.6,12.7-5.7,19.7-6.5
		C55.5,9.7,56.6,9.6,57.7,9.5z M14.9,105.2c0.2,0,0.3,0,0.4-0.1c6.8-1.7,13.5-3.3,20.3-5c0.8-0.2,1.6-0.1,2.3,0.3
		c5.6,3.1,11.7,4.9,18.1,5.5c7.5,0.7,14.8-0.4,21.8-3.3c21.5-8.9,33-32.6,26.7-55.1c-5.2-18.4-21.1-31.6-40.2-33.4
		c-6.1-0.6-12.1,0-17.9,1.9c-9.7,3.1-17.7,8.7-23.6,17c-7.2,10.1-9.9,21.3-8.3,33.5c0.8,5.9,2.8,11.4,5.8,16.6
		c0.4,0.7,0.5,1.5,0.3,2.3c-1.8,6.4-3.6,12.8-5.4,19.1C15,104.8,14.9,105,14.9,105.2z"/>
	<path class="st127" d="M49.4,55.9c4,6.7,9.5,11.5,16.9,14.3c0.2-0.2,0.4-0.4,0.6-0.6c1.1-1.4,2.3-2.7,3.3-4.1c1.3-1.7,3-2.3,5-1.5
		c2.3,0.9,4.5,2,6.8,3.1c1.4,0.6,2.7,1.3,4.1,1.9c1.6,0.7,2.5,1.9,2.5,3.7c0,2.3-0.4,4.4-1.3,6.5c-0.6,1.4-1.6,2.5-2.8,3.4
		c-2.4,1.8-5,3.3-8,3.7c-3.3,0.4-6.5,0-9.7-1c-6-1.9-11.7-4.6-16.6-8.5c-4.2-3.4-8-7.3-11.2-11.6c-1.9-2.5-3.8-5-5.2-7.9
		c-1.4-3-2.3-6.1-2.2-9.5c0.1-4.9,2.2-8.9,5.7-12.2c1.3-1.2,2.8-1.8,4.6-1.8c1,0,1.9,0,2.9,0c1.3,0,2.5,0.6,3.3,1.6
		c0.5,0.6,0.9,1.4,1.2,2.1c1.4,3.1,2.7,6.3,4,9.4c0.6,1.4,0.6,2.8-0.1,4.2c-0.8,1.6-2,3-3.2,4.3C49.7,55.6,49.5,55.7,49.4,55.9z
		 M73.8,68c-1.5,1.8-2.9,3.5-4.3,5.1c-1.3,1.5-3,1.9-4.9,1.1c-0.4-0.2-0.8-0.4-1.3-0.5c-7.6-3.2-13.4-8.4-17.7-15.5
		c-1.3-2.1-1-3.8,0.7-5.6c1-1.1,2.1-2.1,2.7-3.5c0.1-0.2,0.1-0.4,0-0.6c-1.3-3.1-2.7-6.3-3.9-9.4c-0.3-0.8-0.8-1.1-1.6-1.1
		c-2.9,0-2.9,0-4.9,2.1c-2.3,2.6-3,5.7-2.7,9c0.2,2.7,1.3,5.1,2.6,7.4c2.3,4.1,5.2,7.7,8.4,11.1c3.4,3.6,7.1,6.7,11.4,9.1
		c3.7,2.1,7.7,3.6,11.8,4.7c4,1,7.8,0.4,11.1-2.2c0.8-0.6,1.6-1.4,2-2.3c0.5-1.1,0.6-2.4,0.9-3.6c0.1-0.4-0.1-0.6-0.4-0.7
		c-1.9-0.9-3.9-1.9-5.8-2.8C76.5,69.2,75.1,68.6,73.8,68z"/>
</g>
</svg>
