<svg xmlns="http://www.w3.org/2000/svg" xmlns:xlink="http://www.w3.org/1999/xlink" id="Capa_1" x="0px" y="0px" viewBox="0 0 418.1 147.3" style="enable-background:new 0 0 418.1 147.3;" xml:space="preserve"><style type="text/css">	.st0{fill:url(#SVGID_1_);}	.st1{fill:url(#SVGID_2_);}	.st2{fill:url(#SVGID_3_);}	.st3{fill:url(#SVGID_4_);}	.st4{fill:url(#SVGID_5_);}	.st5{fill:url(#SVGID_6_);}	.st6{fill:url(#SVGID_7_);}	.st7{fill:url(#SVGID_8_);}	.st8{fill:url(#SVGID_9_);}	.st9{fill:url(#SVGID_10_);}	.st10{fill:url(#SVGID_11_);}	.st11{fill:url(#SVGID_12_);}	.st12{fill:url(#SVGID_13_);}	.st13{fill:url(#SVGID_14_);}	.st14{fill:url(#SVGID_15_);}	.st15{fill:url(#SVGID_16_);}	.st16{fill:url(#SVGID_17_);}	.st17{fill:url(#SVGID_18_);}	.st18{fill:url(#SVGID_19_);}	.st19{fill:url(#SVGID_20_);}	.st20{fill:url(#SVGID_21_);}	.st21{fill:url(#SVGID_22_);}	.st22{fill:url(#SVGID_23_);}	.st23{fill:url(#SVGID_24_);}	.st24{fill:url(#SVGID_25_);}	.st25{fill:#9DBF51;}	.st26{fill:url(#SVGID_26_);}	.st27{fill:url(#SVGID_27_);}	.st28{fill:url(#SVGID_28_);}	.st29{fill:url(#SVGID_29_);}	.st30{fill:url(#SVGID_30_);}	.st31{fill:url(#SVGID_31_);}	.st32{fill:url(#SVGID_32_);}	.st33{fill:url(#SVGID_33_);}	.st34{fill:url(#SVGID_34_);}	.st35{fill:url(#SVGID_35_);}	.st36{fill:url(#SVGID_36_);}	.st37{fill:url(#SVGID_37_);}	.st38{fill:url(#SVGID_38_);}	.st39{fill:url(#SVGID_39_);}	.st40{fill:url(#SVGID_40_);}	.st41{fill:url(#SVGID_41_);}	.st42{fill:url(#SVGID_42_);}	.st43{fill:url(#SVGID_43_);}	.st44{fill:url(#SVGID_44_);}	.st45{fill:url(#SVGID_45_);}	.st46{fill:url(#SVGID_46_);}	.st47{fill:url(#SVGID_47_);}	.st48{fill:url(#SVGID_48_);}	.st49{fill:url(#SVGID_49_);}	.st50{fill:url(#SVGID_50_);}	.st51{fill:#09090A;}	.st52{fill:none;stroke:#9DBF51;stroke-width:7.9985;stroke-linecap:round;stroke-linejoin:round;stroke-miterlimit:10;}	.st53{fill:#FFFFFF;}	.st54{fill:#181A28;}	.st55{fill:url(#SVGID_51_);}	.st56{fill:url(#SVGID_52_);}	.st57{fill:url(#SVGID_53_);}	.st58{fill:url(#SVGID_54_);}	.st59{fill:url(#SVGID_55_);}	.st60{fill:url(#SVGID_56_);}	.st61{fill:url(#SVGID_57_);}	.st62{fill:url(#SVGID_58_);}	.st63{fill:url(#SVGID_59_);}	.st64{fill:url(#SVGID_60_);}	.st65{fill:url(#SVGID_61_);}	.st66{fill:url(#SVGID_62_);}	.st67{fill:url(#SVGID_63_);}	.st68{fill:url(#SVGID_64_);}	.st69{fill:url(#SVGID_65_);}	.st70{fill:url(#SVGID_66_);}	.st71{fill:url(#SVGID_67_);}	.st72{fill:url(#SVGID_68_);}	.st73{fill:url(#SVGID_69_);}	.st74{fill:url(#SVGID_70_);}	.st75{fill:url(#SVGID_71_);}	.st76{fill:url(#SVGID_72_);}	.st77{fill:url(#SVGID_73_);}	.st78{fill:url(#SVGID_74_);}	.st79{fill:url(#SVGID_75_);}	.st80{fill:url(#SVGID_76_);}	.st81{fill:url(#SVGID_77_);}	.st82{fill:url(#SVGID_78_);}	.st83{fill:url(#SVGID_79_);}	.st84{fill:url(#SVGID_80_);}	.st85{fill:url(#SVGID_81_);}	.st86{fill:url(#SVGID_82_);}	.st87{fill:url(#SVGID_83_);}	.st88{fill:url(#SVGID_84_);}	.st89{fill:url(#SVGID_85_);}	.st90{fill:url(#SVGID_86_);}	.st91{fill:url(#SVGID_87_);}	.st92{fill:url(#SVGID_88_);}	.st93{fill:url(#SVGID_89_);}	.st94{fill:url(#SVGID_90_);}	.st95{fill:url(#SVGID_91_);}	.st96{fill:url(#SVGID_92_);}	.st97{fill:url(#SVGID_93_);}	.st98{fill:url(#SVGID_94_);}	.st99{fill:url(#SVGID_95_);}	.st100{fill:url(#SVGID_96_);}	.st101{fill:url(#SVGID_97_);}	.st102{fill:url(#SVGID_98_);}	.st103{fill:url(#SVGID_99_);}	.st104{fill:url(#SVGID_100_);}	.st105{fill:url(#SVGID_101_);}	.st106{fill:url(#SVGID_102_);}	.st107{fill:url(#SVGID_103_);}	.st108{fill:url(#SVGID_104_);}	.st109{fill:url(#SVGID_105_);}	.st110{fill:url(#SVGID_106_);}	.st111{fill:url(#SVGID_107_);}	.st112{fill:url(#SVGID_108_);}	.st113{fill:#72AD55;}	.st114{fill:#2A8A70;}</style><linearGradient id="SVGID_1_" gradientUnits="userSpaceOnUse" x1="782.3959" y1="-974.9894" x2="1426.3458" y2="75.3106">	<stop offset="0" style="stop-color:#AEC867"></stop>	<stop offset="1" style="stop-color:#407044"></stop></linearGradient><rect x="539.3" y="-1096.4" class="st0" width="595.3" height="420.9"></rect><g>	<linearGradient id="SVGID_2_" gradientUnits="userSpaceOnUse" x1="146.5848" y1="-1434.5863" x2="261.6656" y2="-1187.9849">		<stop offset="0" style="stop-color:#AEC867"></stop>		<stop offset="1" style="stop-color:#407044"></stop>	</linearGradient>	<path class="st1" d="M208-1290.5L208-1290.5c-6.9,0-12.5-5.6-12.5-12.5v0c0-6.9,5.6-12.5,12.5-12.5h0c6.9,0,12.5,5.6,12.5,12.5v0  C220.5-1296.1,214.9-1290.5,208-1290.5z"></path>	<linearGradient id="SVGID_3_" gradientUnits="userSpaceOnUse" x1="185.1051" y1="-1452.4172" x2="299.7151" y2="-1206.8246">		<stop offset="0" style="stop-color:#AEC867"></stop>		<stop offset="1" style="stop-color:#407044"></stop>	</linearGradient>	<path class="st2" d="M199.7-1406.8L199.7-1406.8c-0.6,0.6-1.6,0.6-2.2,0h0c-9.2-9.2-9.2-24.1,0-33.2h0c0.6-0.6,1.6-0.6,2.2,0h0  C208.9-1430.8,208.9-1415.9,199.7-1406.8z"></path>	<linearGradient id="SVGID_4_" gradientUnits="userSpaceOnUse" x1="126.6528" y1="-1425.1049" x2="241.1037" y2="-1179.8528">		<stop offset="0" style="stop-color:#AEC867"></stop>		<stop offset="1" style="stop-color:#407044"></stop>	</linearGradient>	<path class="st3" d="M148.1-1384.2L148.1-1384.2c-0.2,0.8-1.1,1.3-1.9,1h0c-12.5-3.6-19.6-16.7-16-29.1l0,0c0.2-0.8,1.1-1.3,1.9-1  h0C144.6-1409.7,151.8-1396.7,148.1-1384.2z"></path>	<linearGradient id="SVGID_5_" gradientUnits="userSpaceOnUse" x1="161.0049" y1="-1440.9531" x2="275.5175" y2="-1195.5692">		<stop offset="0" style="stop-color:#AEC867"></stop>		<stop offset="1" style="stop-color:#407044"></stop>	</linearGradient>	<path class="st4" d="M192.6-1364.7L192.6-1364.7c-0.5,0.7-1.5,0.8-2.1,0.3h0c-10.5-7.7-12.8-22.4-5.1-32.8h0  c0.5-0.7,1.5-0.8,2.1-0.3h0C198-1389.9,200.3-1375.2,192.6-1364.7z"></path>	<linearGradient id="SVGID_6_" gradientUnits="userSpaceOnUse" x1="129.2194" y1="-1426.2095" x2="243.925" y2="-1180.4117">		<stop offset="0" style="stop-color:#AEC867"></stop>		<stop offset="1" style="stop-color:#407044"></stop>	</linearGradient>	<path class="st5" d="M175.6-1349.3L175.6-1349.3c0.2,0.8-0.4,1.6-1.2,1.8h0c-12.7,2.5-25.1-5.9-27.5-18.6h0  c-0.2-0.8,0.4-1.6,1.2-1.8h0C160.8-1370.3,173.1-1362,175.6-1349.3z"></path>	<linearGradient id="SVGID_7_" gradientUnits="userSpaceOnUse" x1="106.3312" y1="-1416.9601" x2="216.8176" y2="-1180.2034">		<stop offset="0" style="stop-color:#AEC867"></stop>		<stop offset="1" style="stop-color:#407044"></stop>	</linearGradient>	<path class="st6" d="M165.5-1323.3L165.5-1323.3c0.5,0.7,0.3,1.7-0.4,2.1h0c-10.9,7.1-25.4,4.1-32.5-6.8h0  c-0.5-0.7-0.3-1.7,0.4-2.1h0C143.8-1337.2,158.3-1334.1,165.5-1323.3z"></path>	<linearGradient id="SVGID_8_" gradientUnits="userSpaceOnUse" x1="134.1971" y1="-1428.8054" x2="249.2778" y2="-1182.2039">		<stop offset="0" style="stop-color:#AEC867"></stop>		<stop offset="1" style="stop-color:#407044"></stop>	</linearGradient>	<path class="st7" d="M196.7-1318.9L196.7-1318.9c0.3,0.7,0,1.4-0.7,1.7h0c-10.2,4.2-21.9-0.7-26.1-11l0,0c-0.3-0.7,0-1.4,0.7-1.7h0  C180.9-1334,192.5-1329.1,196.7-1318.9z"></path>	<linearGradient id="SVGID_9_" gradientUnits="userSpaceOnUse" x1="100.3318" y1="-1412.8116" x2="214.9692" y2="-1167.1602">		<stop offset="0" style="stop-color:#AEC867"></stop>		<stop offset="1" style="stop-color:#407044"></stop>	</linearGradient>	<path class="st8" d="M132.9-1363.1L132.9-1363.1c0.1,0.8-0.5,1.6-1.3,1.7h0c-12.9,1.6-24.6-7.6-26.2-20.5l0,0  c-0.1-0.8,0.5-1.6,1.3-1.7h0C119.6-1385.1,131.3-1376,132.9-1363.1z"></path>	<linearGradient id="SVGID_10_" gradientUnits="userSpaceOnUse" x1="81.1425" y1="-1403.9163" x2="196.0279" y2="-1157.7334">		<stop offset="0" style="stop-color:#AEC867"></stop>		<stop offset="1" style="stop-color:#407044"></stop>	</linearGradient>	<path class="st9" d="M125.9-1334.6L125.9-1334.6c0.3,0.8-0.2,1.7-1,1.9l0,0c-12.3,4.2-25.6-2.4-29.8-14.7l0,0  c-0.3-0.8,0.2-1.7,1-1.9h0C108.4-1353.5,121.7-1346.9,125.9-1334.6z"></path>	<linearGradient id="SVGID_11_" gradientUnits="userSpaceOnUse" x1="73.481" y1="-1394.0817" x2="181.8303" y2="-1161.9045">		<stop offset="0" style="stop-color:#AEC867"></stop>		<stop offset="1" style="stop-color:#407044"></stop>	</linearGradient>	<path class="st10" d="M129.5-1308.4L129.5-1308.4c0.5,0.7,0.4,1.6-0.3,2.1h0c-10.4,7.8-25.1,5.8-32.9-4.6h0  c-0.5-0.7-0.4-1.6,0.3-2.1l0,0C106.9-1320.8,121.7-1318.8,129.5-1308.4z"></path>	<linearGradient id="SVGID_12_" gradientUnits="userSpaceOnUse" x1="206.8033" y1="-1462.6217" x2="321.7373" y2="-1216.3346">		<stop offset="0" style="stop-color:#AEC867"></stop>		<stop offset="1" style="stop-color:#407044"></stop>	</linearGradient>	<path class="st11" d="M221.3-1404.1L221.3-1404.1c0.4,0.7,1.4,1,2.1,0.6h0c11.3-6.4,15.3-20.7,8.9-32l0,0c-0.4-0.7-1.4-1-2.1-0.6h0  C218.9-1429.7,214.9-1415.4,221.3-1404.1z"></path>	<linearGradient id="SVGID_13_" gradientUnits="userSpaceOnUse" x1="206.8033" y1="-1462.6217" x2="321.7373" y2="-1216.3346">		<stop offset="0" style="stop-color:#AEC867"></stop>		<stop offset="1" style="stop-color:#407044"></stop>	</linearGradient>	<path class="st12" d="M221.3-1404.1L221.3-1404.1c0.4,0.7,1.4,1,2.1,0.6h0c11.3-6.4,15.3-20.7,8.9-32l0,0c-0.4-0.7-1.4-1-2.1-0.6h0  C218.9-1429.7,214.9-1415.4,221.3-1404.1z"></path>	<linearGradient id="SVGID_14_" gradientUnits="userSpaceOnUse" x1="156.9105" y1="-1439.2563" x2="271.3824" y2="-1193.9592">		<stop offset="0" style="stop-color:#AEC867"></stop>		<stop offset="1" style="stop-color:#407044"></stop>	</linearGradient>	<path class="st13" d="M170.9-1400L170.9-1400c0.7,0.4,1.7,0.2,2.1-0.6h0c6.5-11.2,2.6-25.6-8.6-32.1h0c-0.7-0.4-1.7-0.2-2.1,0.6h0  C155.8-1420.8,159.6-1406.5,170.9-1400z"></path>	<linearGradient id="SVGID_15_" gradientUnits="userSpaceOnUse" x1="227.266" y1="-1466.8644" x2="334.4977" y2="-1237.0822">		<stop offset="0" style="stop-color:#AEC867"></stop>		<stop offset="1" style="stop-color:#407044"></stop>	</linearGradient>	<path class="st14" d="M247-1392.2L247-1392.2c-0.8,0.2-1.6-0.4-1.8-1.2h0c-2.5-12.7,5.9-25.1,18.6-27.5h0c0.8-0.2,1.6,0.4,1.8,1.2  l0,0C268.1-1407,259.7-1394.7,247-1392.2z"></path>	<linearGradient id="SVGID_16_" gradientUnits="userSpaceOnUse" x1="240.4569" y1="-1464.1669" x2="340.2894" y2="-1250.2402">		<stop offset="0" style="stop-color:#AEC867"></stop>		<stop offset="1" style="stop-color:#407044"></stop>	</linearGradient>	<path class="st15" d="M262.6-1378L262.6-1378c-0.1,0.8,0.5,1.6,1.4,1.7h0c12.9,1.3,24.4-8.2,25.7-21.1l0,0c0.1-0.8-0.5-1.6-1.4-1.7  h0C275.4-1400.3,263.9-1390.9,262.6-1378z"></path>	<linearGradient id="SVGID_17_" gradientUnits="userSpaceOnUse" x1="245.4246" y1="-1458.7888" x2="343.4991" y2="-1248.6293">		<stop offset="0" style="stop-color:#AEC867"></stop>		<stop offset="1" style="stop-color:#407044"></stop>	</linearGradient>	<path class="st16" d="M278.3-1348.9L278.3-1348.9c-0.8-0.4-1-1.3-0.7-2.1h0c6-11.5,20.2-16,31.7-10h0c0.8,0.4,1,1.3,0.7,2.1l0,0  C304.1-1347.4,289.9-1342.9,278.3-1348.9z"></path>	<linearGradient id="SVGID_18_" gradientUnits="userSpaceOnUse" x1="233.3668" y1="-1459.903" x2="338.9809" y2="-1233.5873">		<stop offset="0" style="stop-color:#AEC867"></stop>		<stop offset="1" style="stop-color:#407044"></stop>	</linearGradient>	<path class="st17" d="M281.7-1322.7L281.7-1322.7c-0.6,0.6-0.7,1.5-0.1,2.2l0,0c8.7,9.6,23.6,10.3,33.2,1.6h0  c0.6-0.6,0.7-1.5,0.1-2.2l0,0C306.2-1330.7,291.3-1331.4,281.7-1322.7z"></path>	<linearGradient id="SVGID_19_" gradientUnits="userSpaceOnUse" x1="204.8317" y1="-1450.7594" x2="312.3664" y2="-1220.3278">		<stop offset="0" style="stop-color:#AEC867"></stop>		<stop offset="1" style="stop-color:#407044"></stop>	</linearGradient>	<path class="st18" d="M248.2-1323.5L248.2-1323.5c-0.4,0.6-0.3,1.5,0.4,1.9h0c9.8,6.6,23.2,4,29.8-5.9l0,0c0.4-0.6,0.3-1.5-0.4-1.9  l0,0C268.1-1336,254.8-1333.4,248.2-1323.5z"></path>	<linearGradient id="SVGID_20_" gradientUnits="userSpaceOnUse" x1="204.1876" y1="-1451.736" x2="310.6001" y2="-1223.7091">		<stop offset="0" style="stop-color:#AEC867"></stop>		<stop offset="1" style="stop-color:#407044"></stop>	</linearGradient>	<path class="st19" d="M236.2-1347.2L236.2-1347.2c-0.2,0.7,0.2,1.5,1,1.7h0c11.4,3.3,23.3-3.2,26.6-14.6l0,0c0.2-0.7-0.2-1.5-1-1.7  h0C251.4-1365.1,239.5-1358.6,236.2-1347.2z"></path>	<linearGradient id="SVGID_21_" gradientUnits="userSpaceOnUse" x1="192.2697" y1="-1454.632" x2="305.7453" y2="-1211.47">		<stop offset="0" style="stop-color:#AEC867"></stop>		<stop offset="1" style="stop-color:#407044"></stop>	</linearGradient>	<path class="st20" d="M219.2-1367.5L219.2-1367.5c0.2,0.7,1,1.1,1.8,0.9h0c11.2-3.8,17.2-16,13.4-27.2l0,0c-0.2-0.7-1-1.1-1.8-0.9  h0C221.4-1390.9,215.4-1378.7,219.2-1367.5z"></path>	<linearGradient id="SVGID_22_" gradientUnits="userSpaceOnUse" x1="176.1561" y1="-1448.3862" x2="291.2368" y2="-1201.7848">		<stop offset="0" style="stop-color:#AEC867"></stop>		<stop offset="1" style="stop-color:#407044"></stop>	</linearGradient>	<path class="st21" d="M219.8-1321.4L219.8-1321.4c-0.3,0.7,0.1,1.4,0.7,1.7h0c10.3,4,21.9-1.2,25.8-11.5h0c0.3-0.7-0.1-1.4-0.7-1.7  h0C235.4-1336.9,223.8-1331.7,219.8-1321.4z"></path>	<linearGradient id="SVGID_23_" gradientUnits="userSpaceOnUse" x1="166.5901" y1="-1443.9221" x2="281.6707" y2="-1197.3206">		<stop offset="0" style="stop-color:#AEC867"></stop>		<stop offset="1" style="stop-color:#407044"></stop>	</linearGradient>	<path class="st22" d="M208.6-1326.4L208.6-1326.4c0.2,0.7,1,1,1.7,0.8h0c10.5-3.6,16-14.9,12.5-25.4h0c-0.2-0.7-1-1-1.7-0.8h0  C210.7-1348.2,205.1-1336.8,208.6-1326.4z"></path>	<linearGradient id="SVGID_24_" gradientUnits="userSpaceOnUse" x1="149.3396" y1="-1435.8719" x2="264.4203" y2="-1189.2704">		<stop offset="0" style="stop-color:#AEC867"></stop>		<stop offset="1" style="stop-color:#407044"></stop>	</linearGradient>	<path class="st23" d="M203.7-1325.5L203.7-1325.5c0.7,0.1,1.4-0.5,1.4-1.2l0,0c1.1-11-7-20.8-18-21.9h0c-0.7-0.1-1.4,0.5-1.4,1.2  l0,0C184.7-1336.4,192.7-1326.6,203.7-1325.5z"></path>	<linearGradient id="SVGID_25_" gradientUnits="userSpaceOnUse" x1="133.2751" y1="-1428.3751" x2="248.3558" y2="-1181.7736">		<stop offset="0" style="stop-color:#AEC867"></stop>		<stop offset="1" style="stop-color:#407044"></stop>	</linearGradient>	<path class="st24" d="M219.8-1255.4c-1.5,13.9-0.5,33.9,4.7,55.4c0.3,1.5-1.5,2.4-2.5,1.3c-17.8-20-11.3-28.9-15.7-28.9  c-2,0-7.5,18.8-16.5,27.4c-1,0.9-2.5,0.4-2.2-0.9c4-17.8,8.4-48.3,9-54.3c2.7-26.2-12.9-37.7-23.8-44.8c-1.1-0.7-0.3-2.5,1-2.1  c9.5,2.8,25.3,9.1,32.8,21.8c1.1,1.8,3.7,1.9,4.9,0.1c5.7-8.4,19.7-23.4,26.7-30.8c0.9-0.9,2.4,0,1.9,1.3c0,0-12.5,24.3-15.7,32.8  C222.5-1271.9,220.4-1261,219.8-1255.4z"></path>	<path class="st25" d="M244.3-1251c-2.5,13.1,3.3,31.5,6.8,53c0.2,1.5-1,2.4-1.7,1.3c-12.4-20-7.9-28.9-11-28.9  c-1.4,0,0.8,18.8-5.5,27.4c-0.7,0.9-1.7,0.4-1.5-0.9c2.8-17.8-7.8-31.2-4.4-53.7c4.2-28.1,11.7-36.1,18.2-44.1  c0.5-0.7,1.6,0,1.2,0.8c-3,5.9-6.8,14.6-4.3,17.6c5.7,6.9,26.7-25.8,34.2-36.9c0.4-0.7,1.5-0.3,1.4,0.5  c-1.2,7.9-10.5,25.5-17.6,32.4C245.6-1268.5,245.9-1259.6,244.3-1251z"></path>			<ellipse transform="matrix(0.3587 -0.9335 0.9335 0.3587 1376.6996 -594.3658)" class="st25" cx="255.8" cy="-1299.1" rx="6.9" ry="5.5"></ellipse>	<path class="st25" d="M168.1-1251c2.5,13.1-3.3,31.5-6.8,53c-0.2,1.5,1,2.4,1.7,1.3c12.4-20,7.9-28.9,11-28.9  c1.4,0-0.8,18.8,5.5,27.4c0.7,0.9,1.7,0.4,1.5-0.9c-2.8-17.8,7.3-31.5,8-53.9c1-31.7-15.3-35.9-21.8-43.9c-0.5-0.7-1.6,0-1.2,0.8  c3,5.9,6.8,14.6,4.3,17.6c-5.7,6.9-26.7-25.8-34.2-36.9c-0.4-0.7-1.5-0.3-1.4,0.5c1.2,7.9,5.6,14.4,11.1,21.6  C157.9-1277.4,166.4-1259.6,168.1-1251z"></path>			<ellipse transform="matrix(0.9335 -0.3587 0.3587 0.9335 476.8757 -30.3699)" class="st25" cx="156.6" cy="-1300.4" rx="5.5" ry="6.9"></ellipse></g><path class="st25" d="M286.8-1194.2H123.5c-2.1,0-3.8-1.7-3.8-3.8s1.7-3.8,3.8-3.8h163.3c2.1,0,3.8,1.7,3.8,3.8 S288.9-1194.2,286.8-1194.2z"></path><linearGradient id="SVGID_26_" gradientUnits="userSpaceOnUse" x1="150.5959" y1="-974.9894" x2="794.5459" y2="75.3106">	<stop offset="0" style="stop-color:#AEC867"></stop>	<stop offset="1" style="stop-color:#407044"></stop></linearGradient><rect x="-92.5" y="-1096.4" class="st26" width="595.3" height="420.9"></rect><g>	<linearGradient id="SVGID_27_" gradientUnits="userSpaceOnUse" x1="686.7648" y1="-1389.4889" x2="767.1606" y2="-1217.2122">		<stop offset="0" style="stop-color:#AEC867"></stop>		<stop offset="1" style="stop-color:#407044"></stop>	</linearGradient>	<path class="st27" d="M729.7-1288.8L729.7-1288.8c-4.8,0-8.7-3.9-8.7-8.7l0,0c0-4.8,3.9-8.7,8.7-8.7l0,0c4.8,0,8.7,3.9,8.7,8.7l0,0  C738.4-1292.7,734.5-1288.8,729.7-1288.8z"></path>	<linearGradient id="SVGID_28_" gradientUnits="userSpaceOnUse" x1="713.6752" y1="-1401.9456" x2="793.7421" y2="-1230.3737">		<stop offset="0" style="stop-color:#AEC867"></stop>		<stop offset="1" style="stop-color:#407044"></stop>	</linearGradient>	<path class="st28" d="M723.9-1370L723.9-1370c-0.4,0.4-1.1,0.4-1.5,0l0,0c-6.4-6.4-6.4-16.8,0-23.2l0,0c0.4-0.4,1.1-0.4,1.5,0l0,0  C730.3-1386.9,730.3-1376.5,723.9-1370z"></path>	<linearGradient id="SVGID_29_" gradientUnits="userSpaceOnUse" x1="672.8401" y1="-1382.865" x2="752.796" y2="-1211.531">		<stop offset="0" style="stop-color:#AEC867"></stop>		<stop offset="1" style="stop-color:#407044"></stop>	</linearGradient>	<path class="st29" d="M687.9-1354.3L687.9-1354.3c-0.2,0.6-0.8,0.9-1.3,0.7l0,0c-8.7-2.5-13.7-11.6-11.2-20.3l0,0  c0.2-0.6,0.8-0.9,1.3-0.7l0,0C685.4-1372.1,690.4-1363,687.9-1354.3z"></path>	<linearGradient id="SVGID_30_" gradientUnits="userSpaceOnUse" x1="696.8387" y1="-1393.9368" x2="776.8376" y2="-1222.5106">		<stop offset="0" style="stop-color:#AEC867"></stop>		<stop offset="1" style="stop-color:#407044"></stop>	</linearGradient>	<path class="st30" d="M718.9-1340.7L718.9-1340.7c-0.3,0.5-1,0.6-1.5,0.2l0,0c-7.3-5.3-8.9-15.6-3.6-22.9l0,0  c0.3-0.5,1-0.6,1.5-0.2l0,0C722.7-1358.3,724.3-1348,718.9-1340.7z"></path>	<linearGradient id="SVGID_31_" gradientUnits="userSpaceOnUse" x1="674.6332" y1="-1383.6368" x2="754.767" y2="-1211.9215">		<stop offset="0" style="stop-color:#AEC867"></stop>		<stop offset="1" style="stop-color:#407044"></stop>	</linearGradient>	<path class="st31" d="M707-1329.9L707-1329.9c0.1,0.6-0.3,1.1-0.8,1.3l0,0c-8.9,1.7-17.5-4.1-19.2-13h0c-0.1-0.6,0.3-1.1,0.8-1.3h0  C696.7-1344.6,705.3-1338.8,707-1329.9z"></path>	<linearGradient id="SVGID_32_" gradientUnits="userSpaceOnUse" x1="658.6434" y1="-1377.1752" x2="735.8297" y2="-1211.776">		<stop offset="0" style="stop-color:#AEC867"></stop>		<stop offset="1" style="stop-color:#407044"></stop>	</linearGradient>	<path class="st32" d="M699.9-1311.7L699.9-1311.7c0.3,0.5,0.2,1.2-0.3,1.5l0,0c-7.6,5-17.8,2.8-22.7-4.8l0,0  c-0.3-0.5-0.2-1.2,0.3-1.5l0,0C684.8-1321.4,695-1319.3,699.9-1311.7z"></path>	<linearGradient id="SVGID_33_" gradientUnits="userSpaceOnUse" x1="678.1107" y1="-1385.4503" x2="758.5064" y2="-1213.1736">		<stop offset="0" style="stop-color:#AEC867"></stop>		<stop offset="1" style="stop-color:#407044"></stop>	</linearGradient>	<path class="st33" d="M721.8-1308.7L721.8-1308.7c0.2,0.5,0,1-0.5,1.2h0c-7.1,2.9-15.3-0.5-18.2-7.7l0,0c-0.2-0.5,0-1,0.5-1.2h0  C710.7-1319.2,718.9-1315.8,721.8-1308.7z"></path>	<linearGradient id="SVGID_34_" gradientUnits="userSpaceOnUse" x1="654.4522" y1="-1374.277" x2="734.5383" y2="-1202.6639">		<stop offset="0" style="stop-color:#AEC867"></stop>		<stop offset="1" style="stop-color:#407044"></stop>	</linearGradient>	<path class="st34" d="M677.2-1339.5L677.2-1339.5c0.1,0.6-0.3,1.1-0.9,1.2l0,0c-9,1.1-17.2-5.3-18.3-14.3l0,0  c-0.1-0.6,0.3-1.1,0.9-1.2l0,0C667.9-1355,676.1-1348.5,677.2-1339.5z"></path>	<linearGradient id="SVGID_35_" gradientUnits="userSpaceOnUse" x1="641.0465" y1="-1368.0626" x2="721.3058" y2="-1196.0784">		<stop offset="0" style="stop-color:#AEC867"></stop>		<stop offset="1" style="stop-color:#407044"></stop>	</linearGradient>	<path class="st35" d="M672.3-1319.7L672.3-1319.7c0.2,0.6-0.1,1.2-0.7,1.4l0,0c-8.6,2.9-17.9-1.7-20.8-10.2l0,0  c-0.2-0.6,0.1-1.2,0.7-1.4l0,0C660.1-1332.8,669.4-1328.2,672.3-1319.7z"></path>	<linearGradient id="SVGID_36_" gradientUnits="userSpaceOnUse" x1="635.6942" y1="-1361.1921" x2="711.3874" y2="-1198.9924">		<stop offset="0" style="stop-color:#AEC867"></stop>		<stop offset="1" style="stop-color:#407044"></stop>	</linearGradient>	<path class="st36" d="M674.8-1301.3L674.8-1301.3c0.4,0.5,0.3,1.1-0.2,1.5l0,0c-7.2,5.5-17.5,4-23-3.2l0,0  c-0.4-0.5-0.3-1.1,0.2-1.5l0,0C659.1-1310,669.4-1308.6,674.8-1301.3z"></path>	<linearGradient id="SVGID_37_" gradientUnits="userSpaceOnUse" x1="728.8336" y1="-1409.0745" x2="809.127" y2="-1237.0173">		<stop offset="0" style="stop-color:#AEC867"></stop>		<stop offset="1" style="stop-color:#407044"></stop>	</linearGradient>	<path class="st37" d="M739-1368.2L739-1368.2c0.3,0.5,0.9,0.7,1.5,0.4l0,0c7.9-4.5,10.7-14.5,6.2-22.4l0,0  c-0.3-0.5-0.9-0.7-1.5-0.4l0,0C737.3-1386.1,734.5-1376.1,739-1368.2z"></path>	<linearGradient id="SVGID_38_" gradientUnits="userSpaceOnUse" x1="728.8336" y1="-1409.0745" x2="809.127" y2="-1237.0173">		<stop offset="0" style="stop-color:#AEC867"></stop>		<stop offset="1" style="stop-color:#407044"></stop>	</linearGradient>	<path class="st38" d="M739-1368.2L739-1368.2c0.3,0.5,0.9,0.7,1.5,0.4l0,0c7.9-4.5,10.7-14.5,6.2-22.4l0,0  c-0.3-0.5-0.9-0.7-1.5-0.4l0,0C737.3-1386.1,734.5-1376.1,739-1368.2z"></path>	<linearGradient id="SVGID_39_" gradientUnits="userSpaceOnUse" x1="693.9783" y1="-1392.7513" x2="773.9488" y2="-1221.3859">		<stop offset="0" style="stop-color:#AEC867"></stop>		<stop offset="1" style="stop-color:#407044"></stop>	</linearGradient>	<path class="st39" d="M703.7-1365.3L703.7-1365.3c0.5,0.3,1.2,0.1,1.5-0.4l0,0c4.5-7.9,1.8-17.9-6-22.4l0,0  c-0.5-0.3-1.2-0.1-1.5,0.4l0,0C693.2-1379.9,695.9-1369.8,703.7-1365.3z"></path>	<linearGradient id="SVGID_40_" gradientUnits="userSpaceOnUse" x1="743.1289" y1="-1412.0385" x2="818.0414" y2="-1251.5117">		<stop offset="0" style="stop-color:#AEC867"></stop>		<stop offset="1" style="stop-color:#407044"></stop>	</linearGradient>	<path class="st40" d="M756.9-1359.9L756.9-1359.9c-0.6,0.1-1.1-0.3-1.3-0.8l0,0c-1.7-8.9,4.1-17.5,13-19.2l0,0  c0.6-0.1,1.1,0.3,1.3,0.8h0C771.6-1370.2,765.8-1361.6,756.9-1359.9z"></path>	<linearGradient id="SVGID_41_" gradientUnits="userSpaceOnUse" x1="752.3442" y1="-1410.1539" x2="822.0875" y2="-1260.704">		<stop offset="0" style="stop-color:#AEC867"></stop>		<stop offset="1" style="stop-color:#407044"></stop>	</linearGradient>	<path class="st41" d="M767.8-1349.9L767.8-1349.9c-0.1,0.6,0.4,1.1,1,1.2l0,0c9,0.9,17.1-5.7,17.9-14.7v0c0.1-0.6-0.4-1.1-1-1.2  l0,0C776.7-1365.6,768.7-1359,767.8-1349.9z"></path>	<linearGradient id="SVGID_42_" gradientUnits="userSpaceOnUse" x1="755.8146" y1="-1406.3969" x2="824.3298" y2="-1259.5786">		<stop offset="0" style="stop-color:#AEC867"></stop>		<stop offset="1" style="stop-color:#407044"></stop>	</linearGradient>	<path class="st42" d="M778.8-1329.7L778.8-1329.7c-0.5-0.3-0.7-0.9-0.5-1.4l0,0c4.2-8,14.1-11.2,22.1-7l0,0  c0.5,0.3,0.7,0.9,0.5,1.4v0C796.8-1328.6,786.9-1325.5,778.8-1329.7z"></path>	<linearGradient id="SVGID_43_" gradientUnits="userSpaceOnUse" x1="747.391" y1="-1407.1752" x2="821.1733" y2="-1249.0702">		<stop offset="0" style="stop-color:#AEC867"></stop>		<stop offset="1" style="stop-color:#407044"></stop>	</linearGradient>	<path class="st43" d="M781.2-1311.3L781.2-1311.3c-0.4,0.4-0.5,1.1-0.1,1.5l0,0c6.1,6.7,16.5,7.2,23.2,1.1h0  c0.4-0.4,0.5-1.1,0.1-1.5l0,0C798.3-1316.9,787.9-1317.4,781.2-1311.3z"></path>	<linearGradient id="SVGID_44_" gradientUnits="userSpaceOnUse" x1="727.4562" y1="-1400.7874" x2="802.5804" y2="-1239.807">		<stop offset="0" style="stop-color:#AEC867"></stop>		<stop offset="1" style="stop-color:#407044"></stop>	</linearGradient>	<path class="st44" d="M757.8-1311.9L757.8-1311.9c-0.3,0.4-0.2,1.1,0.3,1.4l0,0c6.9,4.6,16.2,2.8,20.8-4.1l0,0  c0.3-0.4,0.2-1.1-0.3-1.4l0,0C771.7-1320.6,762.4-1318.8,757.8-1311.9z"></path>	<linearGradient id="SVGID_45_" gradientUnits="userSpaceOnUse" x1="727.0063" y1="-1401.4696" x2="801.3464" y2="-1242.1693">		<stop offset="0" style="stop-color:#AEC867"></stop>		<stop offset="1" style="stop-color:#407044"></stop>	</linearGradient>	<path class="st45" d="M749.4-1328.4L749.4-1328.4c-0.2,0.5,0.1,1.1,0.7,1.2h0c7.9,2.3,16.3-2.3,18.6-10.2l0,0  c0.2-0.5-0.1-1.1-0.7-1.2l0,0C760-1341,751.7-1336.4,749.4-1328.4z"></path>	<linearGradient id="SVGID_46_" gradientUnits="userSpaceOnUse" x1="718.6804" y1="-1403.4928" x2="797.9548" y2="-1233.6189">		<stop offset="0" style="stop-color:#AEC867"></stop>		<stop offset="1" style="stop-color:#407044"></stop>	</linearGradient>	<path class="st46" d="M737.5-1342.6L737.5-1342.6c0.2,0.5,0.7,0.8,1.2,0.6l0,0c7.8-2.7,12-11.2,9.3-19l0,0  c-0.2-0.5-0.7-0.8-1.2-0.6h0C739-1359,734.8-1350.5,737.5-1342.6z"></path>	<linearGradient id="SVGID_47_" gradientUnits="userSpaceOnUse" x1="707.4233" y1="-1399.1295" x2="787.8192" y2="-1226.8528">		<stop offset="0" style="stop-color:#AEC867"></stop>		<stop offset="1" style="stop-color:#407044"></stop>	</linearGradient>	<path class="st47" d="M737.9-1310.4L737.9-1310.4c-0.2,0.5,0.1,1,0.5,1.2h0c7.2,2.8,15.3-0.8,18.1-8l0,0c0.2-0.5-0.1-1-0.5-1.2v0  C748.8-1321.2,740.7-1317.6,737.9-1310.4z"></path>	<linearGradient id="SVGID_48_" gradientUnits="userSpaceOnUse" x1="700.7405" y1="-1396.0109" x2="781.1363" y2="-1223.7341">		<stop offset="0" style="stop-color:#AEC867"></stop>		<stop offset="1" style="stop-color:#407044"></stop>	</linearGradient>	<path class="st48" d="M730.1-1313.9L730.1-1313.9c0.2,0.5,0.7,0.7,1.2,0.6h0c7.3-2.5,11.2-10.4,8.7-17.7l0,0  c-0.2-0.5-0.7-0.7-1.2-0.6l0,0C731.5-1329.1,727.6-1321.2,730.1-1313.9z"></path>	<linearGradient id="SVGID_49_" gradientUnits="userSpaceOnUse" x1="688.6893" y1="-1390.387" x2="769.085" y2="-1218.1102">		<stop offset="0" style="stop-color:#AEC867"></stop>		<stop offset="1" style="stop-color:#407044"></stop>	</linearGradient>	<path class="st49" d="M726.7-1313.3L726.7-1313.3c0.5,0,0.9-0.3,1-0.8l0,0c0.8-7.7-4.9-14.5-12.5-15.3l0,0c-0.5,0-0.9,0.3-1,0.8  l0,0C713.4-1320.9,719-1314,726.7-1313.3z"></path>	<linearGradient id="SVGID_50_" gradientUnits="userSpaceOnUse" x1="677.4665" y1="-1385.1497" x2="757.8623" y2="-1212.8729">		<stop offset="0" style="stop-color:#AEC867"></stop>		<stop offset="1" style="stop-color:#407044"></stop>	</linearGradient>	<path class="st50" d="M737.9-1264.3c-1,9.7-0.3,23.7,3.3,38.7c0.2,1-1,1.7-1.7,0.9c-12.4-14-7.9-20.2-11-20.2  c-1.4,0-5.3,13.1-11.5,19.2c-0.7,0.7-1.7,0.3-1.5-0.6c2.8-12.5,5.9-33.7,6.3-38c1.9-18.3-9-26.3-16.6-31.3  c-0.8-0.5-0.2-1.7,0.7-1.5c6.7,1.9,17.7,6.4,22.9,15.2c0.8,1.3,2.6,1.3,3.4,0.1c4-5.9,13.8-16.4,18.7-21.5c0.6-0.7,1.7,0,1.4,0.9  c0,0-8.7,17-11,22.9C739.8-1275.8,738.3-1268.2,737.9-1264.3z"></path>	<path class="st25" d="M755-1261.2c-1.7,9.2,2.3,22,4.8,37c0.2,1-0.7,1.7-1.2,0.9c-8.7-14-5.5-20.2-7.7-20.2c-1,0,0.5,13.1-3.8,19.2  c-0.5,0.7-1.2,0.3-1.1-0.6c2-12.5-5.4-21.8-3.1-37.5c2.9-19.6,8.2-25.2,12.7-30.8c0.4-0.5,1.1,0,0.8,0.5c-2.1,4.1-4.7,10.2-3,12.3  c4,4.8,18.6-18.1,23.9-25.8c0.3-0.5,1-0.2,0.9,0.4c-0.8,5.5-7.3,17.8-12.3,22.7C756-1273.5,756.2-1267.3,755-1261.2z"></path>			<ellipse transform="matrix(0.3587 -0.9335 0.9335 0.3587 1698.0294 -118.1179)" class="st25" cx="763.1" cy="-1294.8" rx="4.8" ry="3.8"></ellipse>	<path class="st25" d="M701.8-1261.2c1.7,9.2-2.3,22-4.8,37c-0.2,1,0.7,1.7,1.2,0.9c8.7-14,5.5-20.2,7.7-20.2c1,0-0.5,13.1,3.8,19.2  c0.5,0.7,1.2,0.3,1.1-0.6c-2-12.5,5.1-22,5.6-37.6c0.7-22.2-10.7-25.1-15.3-30.6c-0.4-0.5-1.1,0-0.8,0.5c2.1,4.1,4.7,10.2,3,12.3  c-4,4.8-18.6-18.1-23.9-25.8c-0.3-0.5-1-0.2-0.9,0.4c0.8,5.5,3.9,10,7.7,15.1C694.7-1279.6,700.6-1267.3,701.8-1261.2z"></path>			<ellipse transform="matrix(0.9335 -0.3587 0.3587 0.9335 510.9501 162.6192)" class="st25" cx="693.8" cy="-1295.8" rx="3.8" ry="4.8"></ellipse>	<g>		<g>			<path class="st51" d="M829.1-1351.7l-2.1,5.6h-12.5l15.2-33.8h17.3l1,33.8h-12.3l0.2-5.6H829.1z M836.3-1360.7    c0.1-2.6,0.4-8.3,0.7-12.2h-0.5c-1.3,4.3-2.7,8.2-4,12.2H836.3z"></path>			<path class="st51" d="M857.9-1379.9h24.8l-1.8,8.3h-12.7l-1,4.7h11.8l-1.8,8.4h-11.8l-2.6,12.4h-12.2L857.9-1379.9z"></path>			<path class="st51" d="M916-1366.6c0,7.1-3.1,21.4-19.9,21.4c-10,0-14.5-5.3-14.5-13.9c0-8.5,4.6-21.6,19.6-21.6    C910.3-1380.8,916-1375.7,916-1366.6z M894.4-1357.7c0,2.9,0.6,4.3,2.7,4.3c4.8,0,6.4-13.2,6.4-15.2c0-3-0.6-4-2.7-4    C896.2-1372.6,894.4-1360.8,894.4-1357.7z"></path>			<path class="st51" d="M949.6-1357c-2.1,7.2-7.7,11.8-17.2,11.8c-10.3,0-14-6-14-13.9c0-9,4.9-21.6,19.1-21.6    c11.8,0,14.4,7,14.2,12.4h-12.3c0.2-2.6,0-4.2-2.2-4.2c-3.8,0-5.9,9.6-5.9,15.1c0,2.4,0.7,4,2.4,4c2.2,0,3-1.6,3.6-3.5H949.6z"></path>			<path class="st51" d="M963.3-1351.7l-2.1,5.6h-12.5l15.2-33.8h17.3l1,33.8h-12.3l0.2-5.6H963.3z M970.5-1360.7    c0.1-2.6,0.4-8.3,0.7-12.2h-0.5c-1.3,4.3-2.7,8.2-4,12.2H970.5z"></path>			<path class="st51" d="M996.6-1371.5h-8l1.8-8.4h28.3l-1.8,8.4h-7.9l-5.4,25.4h-12.4L996.6-1371.5z"></path>			<path class="st51" d="M831.2-1309.1l-2.6,12.3h-12l7.2-33.8h16c8.2,0,11.7,3.7,11.7,8.6s-3.2,7.7-7.1,8.8c2.5,1.4,4,3.5,2.7,9.8    c-1.1,5.4-1,6.6-1,6.7h-11.7c0-0.2,0-3,1-7.5c0.8-3.5,0-4.8-2.1-4.8H831.2z M832.8-1316.7h2.2c2.9,0,3.8-2,3.8-3.7    c0-1.8-0.9-2.7-2.7-2.7h-2L832.8-1316.7z"></path>			<path class="st51" d="M877.9-1309.6h-13l-0.9,4.4h15.2l-2.7,8.3h-26.2l7.2-33.8h25.3l-1.8,8.4h-13.5l-0.9,4.3h13L877.9-1309.6z"></path>			<path class="st51" d="M912.2-1296.8h-7.7c0-0.5,0-2,0.1-2.9c-2.2,2.5-4.7,3.8-9.8,3.8c-7.6,0-12-5.3-12-14    c0-7,3.5-21.5,19.6-21.5c10.6,0,14.6,5.8,14.5,11.3h-12.2c0-1.5-0.2-3.2-2.6-3.2c-4.5,0-6.5,9.5-6.5,14.3c0,3.1,0.9,4.9,2.9,4.9    c2.7,0,3.5-2.3,4-4.5l0.1-0.7H899l1.7-7.2h15.6C913.1-1301.4,912.6-1298.8,912.2-1296.8z"></path>			<path class="st51" d="M936.3-1330.6l-7.2,33.8h-12.4l7.2-33.8H936.3z"></path>			<path class="st51" d="M970.7-1317.3c0,7.1-3.1,21.4-19.9,21.4c-10,0-14.5-5.3-14.5-13.9c0-8.5,4.6-21.6,19.6-21.6    C965-1331.5,970.7-1326.4,970.7-1317.3z M949.1-1308.4c0,2.9,0.6,4.3,2.7,4.3c4.8,0,6.4-13.2,6.4-15.2c0-3-0.6-4-2.7-4    C950.9-1323.3,949.1-1311.6,949.1-1308.4z M971.1-1339.6l-9.8,6.5h-9.7l6.8-6.5H971.1z"></path>			<path class="st51" d="M970.9-1296.8l7.2-33.8h14.2c0,0,1.2,17.4,1.2,17.4h0.3c0.5-4,1.5-9.7,2.5-14.4l0.6-3h11.2l-7.2,33.8h-13.7    c0,0-1.3-18.8-1.3-18.8h-0.2c-0.5,4.2-1.7,9.9-2.9,15.4l-0.7,3.5H970.9z"></path>			<path class="st51" d="M850-1258.5c-2.1,7.2-7.7,11.8-17.2,11.8c-10.3,0-14-6-14-13.9c0-9,4.9-21.6,19.1-21.6    c11.8,0,14.4,7,14.2,12.4h-12.3c0.2-2.6,0-4.2-2.2-4.2c-3.8,0-5.9,9.6-5.9,15.1c0,2.4,0.7,4,2.4,4c2.2,0,3-1.6,3.6-3.5H850z"></path>			<path class="st51" d="M878.7-1260.3h-13l-0.9,4.4H880l-2.7,8.3h-26.2l7.2-33.8h25.3l-1.8,8.4h-13.5l-0.9,4.3h13L878.7-1260.3z"></path>			<path class="st51" d="M881.6-1247.5l7.2-33.8h14.2c0,0,1.2,17.4,1.2,17.4h0.3c0.5-4,1.5-9.7,2.5-14.4l0.6-3h11.2l-7.2,33.8h-13.7    c0,0-1.3-18.8-1.3-18.8h-0.2c-0.5,4.2-1.7,9.9-2.9,15.4l-0.7,3.5H881.6z"></path>			<path class="st51" d="M928.4-1273h-8l1.8-8.4h28.3l-1.8,8.4h-7.9l-5.4,25.4H923L928.4-1273z"></path>			<path class="st51" d="M961.3-1259.8l-2.6,12.3h-12l7.2-33.8h16c8.2,0,11.7,3.7,11.7,8.6s-3.2,7.7-7.1,8.8c2.5,1.4,4,3.5,2.7,9.8    c-1.1,5.4-1,6.6-1,6.7h-11.7c0-0.2,0-3,1-7.5c0.8-3.5,0-4.8-2.1-4.8H961.3z M962.8-1267.4h2.2c2.9,0,3.8-2,3.8-3.7    c0-1.8-0.9-2.7-2.7-2.7h-2L962.8-1267.4z"></path>			<path class="st51" d="M1017-1268c0,7.1-3.1,21.4-19.9,21.4c-10,0-14.5-5.3-14.5-13.9c0-8.5,4.6-21.6,19.6-21.6    C1011.3-1282.2,1017-1277.1,1017-1268z M995.4-1259.1c0,2.9,0.6,4.3,2.7,4.3c4.8,0,6.4-13.2,6.4-15.2c0-3-0.6-4-2.7-4    C997.3-1274,995.4-1262.3,995.4-1259.1z"></path>		</g>	</g>	<line class="st52" x1="630.6" y1="-1224.2" x2="1043.3" y2="-1224.2"></line></g><g>	<path class="st53" d="M729.7-881.2L729.7-881.2c-4.8,0-8.7-3.9-8.7-8.7l0,0c0-4.8,3.9-8.7,8.7-8.7l0,0c4.8,0,8.7,3.9,8.7,8.7l0,0  C738.4-885.2,734.5-881.2,729.7-881.2z"></path>	<path class="st53" d="M723.9-962.5L723.9-962.5c-0.4,0.4-1.1,0.4-1.5,0l0,0c-6.4-6.4-6.4-16.8,0-23.2l0,0c0.4-0.4,1.1-0.4,1.5,0  l0,0C730.3-979.3,730.3-968.9,723.9-962.5z"></path>	<path class="st53" d="M687.9-946.7L687.9-946.7c-0.2,0.6-0.8,0.9-1.3,0.7l0,0c-8.7-2.5-13.7-11.6-11.2-20.3l0,0  c0.2-0.6,0.8-0.9,1.3-0.7l0,0C685.4-964.5,690.4-955.4,687.9-946.7z"></path>	<path class="st53" d="M718.9-933.1L718.9-933.1c-0.3,0.5-1,0.6-1.5,0.2l0,0c-7.3-5.3-8.9-15.6-3.6-22.9l0,0c0.3-0.5,1-0.6,1.5-0.2  l0,0C722.7-950.7,724.3-940.4,718.9-933.1z"></path>	<path class="st53" d="M707-922.3L707-922.3c0.1,0.6-0.3,1.1-0.8,1.3l0,0c-8.9,1.7-17.5-4.1-19.2-13h0c-0.1-0.6,0.3-1.1,0.8-1.3h0  C696.7-937,705.3-931.2,707-922.3z"></path>	<path class="st53" d="M699.9-904.1L699.9-904.1c0.3,0.5,0.2,1.2-0.3,1.5l0,0c-7.6,5-17.8,2.8-22.7-4.8l0,0  c-0.3-0.5-0.2-1.2,0.3-1.5h0C684.8-913.9,695-911.7,699.9-904.1z"></path>	<path class="st53" d="M721.8-901.1L721.8-901.1c0.2,0.5,0,1-0.5,1.2l0,0c-7.1,2.9-15.3-0.5-18.2-7.7l0,0c-0.2-0.5,0-1,0.5-1.2h0  C710.7-911.7,718.9-908.2,721.8-901.1z"></path>	<path class="st53" d="M677.2-932L677.2-932c0.1,0.6-0.3,1.1-0.9,1.2l0,0c-9,1.1-17.2-5.3-18.3-14.3l0,0c-0.1-0.6,0.3-1.1,0.9-1.2  l0,0C667.9-947.4,676.1-941,677.2-932z"></path>	<path class="st53" d="M672.3-912.1L672.3-912.1c0.2,0.6-0.1,1.2-0.7,1.4v0c-8.6,2.9-17.9-1.7-20.8-10.2l0,0  c-0.2-0.6,0.1-1.2,0.7-1.4l0,0C660.1-925.2,669.4-920.7,672.3-912.1z"></path>	<path class="st53" d="M674.8-893.7L674.8-893.7c0.4,0.5,0.3,1.1-0.2,1.5l0,0c-7.2,5.5-17.5,4-23-3.2l0,0c-0.4-0.5-0.3-1.1,0.2-1.5  v0C659.1-902.4,669.4-901,674.8-893.7z"></path>	<path class="st53" d="M739-960.6L739-960.6c0.3,0.5,0.9,0.7,1.5,0.4l0,0c7.9-4.5,10.7-14.5,6.2-22.4l0,0c-0.3-0.5-0.9-0.7-1.5-0.4  h0C737.3-978.5,734.5-968.5,739-960.6z"></path>	<path class="st53" d="M739-960.6L739-960.6c0.3,0.5,0.9,0.7,1.5,0.4l0,0c7.9-4.5,10.7-14.5,6.2-22.4l0,0c-0.3-0.5-0.9-0.7-1.5-0.4  h0C737.3-978.5,734.5-968.5,739-960.6z"></path>	<path class="st53" d="M703.7-957.7L703.7-957.7c0.5,0.3,1.2,0.1,1.5-0.4l0,0c4.5-7.9,1.8-17.9-6-22.4l0,0c-0.5-0.3-1.2-0.1-1.5,0.4  l0,0C693.2-972.3,695.9-962.3,703.7-957.7z"></path>	<path class="st53" d="M756.9-952.3L756.9-952.3c-0.6,0.1-1.1-0.3-1.3-0.8v0c-1.7-8.9,4.1-17.5,13-19.2l0,0c0.6-0.1,1.1,0.3,1.3,0.8  h0C771.6-962.6,765.8-954,756.9-952.3z"></path>	<path class="st53" d="M767.8-942.3L767.8-942.3c-0.1,0.6,0.4,1.1,1,1.2l0,0c9,0.9,17.1-5.7,17.9-14.7v0c0.1-0.6-0.4-1.1-1-1.2l0,0  C776.7-958,768.7-951.4,767.8-942.3z"></path>	<path class="st53" d="M778.8-922.1L778.8-922.1c-0.5-0.3-0.7-0.9-0.5-1.4l0,0c4.2-8,14.1-11.2,22.1-7l0,0c0.5,0.3,0.7,0.9,0.5,1.4  l0,0C796.8-921,786.9-917.9,778.8-922.1z"></path>	<path class="st53" d="M781.2-903.8L781.2-903.8c-0.4,0.4-0.5,1.1-0.1,1.5l0,0c6.1,6.7,16.5,7.2,23.2,1.1h0c0.4-0.4,0.5-1.1,0.1-1.5  l0,0C798.3-909.3,787.9-909.8,781.2-903.8z"></path>	<path class="st53" d="M757.8-904.3L757.8-904.3c-0.3,0.4-0.2,1.1,0.3,1.4v0c6.9,4.6,16.2,2.8,20.8-4.1l0,0c0.3-0.4,0.2-1.1-0.3-1.4  l0,0C771.7-913,762.4-911.2,757.8-904.3z"></path>	<path class="st53" d="M749.4-920.8L749.4-920.8c-0.2,0.5,0.1,1.1,0.7,1.2h0c7.9,2.3,16.3-2.3,18.6-10.2l0,0  c0.2-0.5-0.1-1.1-0.7-1.2l0,0C760-933.4,751.7-928.8,749.4-920.8z"></path>	<path class="st53" d="M737.5-935L737.5-935c0.2,0.5,0.7,0.8,1.2,0.6l0,0c7.8-2.7,12-11.2,9.3-19v0c-0.2-0.5-0.7-0.8-1.2-0.6h0  C739-951.4,734.8-942.9,737.5-935z"></path>	<path class="st53" d="M737.9-902.8L737.9-902.8c-0.2,0.5,0.1,1,0.5,1.2h0c7.2,2.8,15.3-0.8,18.1-8l0,0c0.2-0.5-0.1-1-0.5-1.2l0,0  C748.8-913.6,740.7-910,737.9-902.8z"></path>	<path class="st53" d="M730.1-906.3L730.1-906.3c0.2,0.5,0.7,0.7,1.2,0.6h0c7.3-2.5,11.2-10.4,8.7-17.7l0,0  c-0.2-0.5-0.7-0.7-1.2-0.6l0,0C731.5-921.6,727.6-913.6,730.1-906.3z"></path>	<path class="st53" d="M726.7-905.7L726.7-905.7c0.5,0,0.9-0.3,1-0.8l0,0c0.8-7.7-4.9-14.5-12.5-15.3l0,0c-0.5,0-0.9,0.3-1,0.8l0,0  C713.4-913.3,719-906.4,726.7-905.7z"></path>	<path class="st53" d="M737.9-856.7c-1,9.7-0.3,23.7,3.3,38.7c0.2,1-1,1.7-1.7,0.9c-12.4-14-7.9-20.2-11-20.2  c-1.4,0-5.3,13.1-11.5,19.2c-0.7,0.7-1.7,0.3-1.5-0.6c2.8-12.5,5.9-33.7,6.3-38c1.9-18.3-9-26.3-16.6-31.3  c-0.8-0.5-0.2-1.7,0.7-1.5c6.7,1.9,17.7,6.4,22.9,15.2c0.8,1.3,2.6,1.3,3.4,0.1c4-5.9,13.8-16.4,18.7-21.5c0.6-0.7,1.7,0,1.4,0.9  c0,0-8.7,17-11,22.9C739.8-868.2,738.3-860.6,737.9-856.7z"></path>	<path class="st53" d="M755-853.7c-1.7,9.2,2.3,22,4.8,37c0.2,1-0.7,1.7-1.2,0.9c-8.7-14-5.5-20.2-7.7-20.2c-1,0,0.5,13.1-3.8,19.2  c-0.5,0.7-1.2,0.3-1.1-0.6c2-12.5-5.4-21.8-3.1-37.5c2.9-19.6,8.2-25.2,12.7-30.8c0.4-0.5,1.1,0,0.8,0.5c-2.1,4.1-4.7,10.2-3,12.3  c4,4.8,18.6-18.1,23.9-25.8c0.3-0.5,1-0.2,0.9,0.4c-0.8,5.5-7.3,17.8-12.3,22.7C756-865.9,756.2-859.7,755-853.7z"></path>			<ellipse transform="matrix(0.3587 -0.9335 0.9335 0.3587 1317.5675 143.2679)" class="st53" cx="763.1" cy="-887.3" rx="4.8" ry="3.8"></ellipse>	<path class="st53" d="M701.8-853.7c1.7,9.2-2.3,22-4.8,37c-0.2,1,0.7,1.7,1.2,0.9c8.7-14,5.5-20.2,7.7-20.2c1,0-0.5,13.1,3.8,19.2  c0.5,0.7,1.2,0.3,1.1-0.6c-2-12.5,5.1-22,5.6-37.6c0.7-22.2-10.7-25.1-15.3-30.6c-0.4-0.5-1.1,0-0.8,0.5c2.1,4.1,4.7,10.2,3,12.3  c-4,4.8-18.6-18.1-23.9-25.8c-0.3-0.5-1-0.2-0.9,0.4c0.8,5.5,3.9,10,7.7,15.1C694.7-872.1,700.6-859.7,701.8-853.7z"></path>			<ellipse transform="matrix(0.9335 -0.3587 0.3587 0.9335 364.751 189.7422)" class="st53" cx="693.8" cy="-888.2" rx="3.8" ry="4.8"></ellipse>	<g>		<path class="st53" d="M829.1-944.1l-2.1,5.6h-12.5l15.2-33.8h17.3l1,33.8h-12.3l0.2-5.6H829.1z M836.3-953.2   c0.1-2.6,0.4-8.3,0.7-12.2h-0.5c-1.3,4.3-2.7,8.2-4,12.2H836.3z"></path>		<path class="st53" d="M858.2-972.3h24.8l-1.8,8.3h-12.7l-1,4.7h11.8l-1.8,8.4h-11.8l-2.6,12.4H851L858.2-972.3z"></path>		<path class="st53" d="M916.3-959c0,7.1-3.1,21.4-19.9,21.4c-10,0-14.5-5.3-14.5-13.9c0-8.5,4.6-21.6,19.6-21.6   C910.6-973.2,916.3-968.1,916.3-959z M894.7-950.1c0,2.9,0.6,4.3,2.7,4.3c4.8,0,6.4-13.2,6.4-15.2c0-3-0.6-4-2.7-4   C896.5-965,894.7-953.3,894.7-950.1z"></path>		<path class="st53" d="M950.3-949.5c-2.1,7.2-7.7,11.8-17.2,11.8c-10.3,0-14-6-14-13.9c0-9,4.9-21.6,19.1-21.6   c11.8,0,14.4,7,14.2,12.4H940c0.2-2.6,0-4.2-2.2-4.2c-3.8,0-5.9,9.6-5.9,15.1c0,2.4,0.7,4,2.4,4c2.2,0,3-1.6,3.6-3.5H950.3z"></path>		<path class="st53" d="M964.2-944.1l-2.1,5.6h-12.5l15.2-33.8H982l1,33.8h-12.3l0.2-5.6H964.2z M971.4-953.2   c0.1-2.6,0.4-8.3,0.7-12.2h-0.5c-1.3,4.3-2.7,8.2-4,12.2H971.4z"></path>		<path class="st53" d="M994.1-964h-8l1.8-8.4h28.3l-1.8,8.4h-7.9l-5.4,25.4h-12.4L994.1-964z"></path>		<path class="st53" d="M831.2-901.6l-2.6,12.3h-12l7.2-33.8h16c8.2,0,11.7,3.7,11.7,8.6s-3.2,7.7-7.1,8.8c2.5,1.4,4,3.5,2.7,9.8   c-1.1,5.4-1,6.6-1,6.7h-11.7c0-0.2,0-3,1-7.5c0.8-3.5,0-4.8-2.1-4.8H831.2z M832.8-909.1h2.2c2.9,0,3.8-2,3.8-3.7   c0-1.8-0.9-2.7-2.7-2.7h-2L832.8-909.1z"></path>		<path class="st53" d="M878.2-902h-13l-0.9,4.4h15.2l-2.7,8.3h-26.2l7.2-33.8h25.3l-1.8,8.4H868l-0.9,4.3h13L878.2-902z"></path>		<path class="st53" d="M912.6-889.2h-7.7c0-0.5,0-2,0.1-2.9c-2.2,2.5-4.7,3.8-9.8,3.8c-7.6,0-12-5.3-12-14c0-7,3.5-21.5,19.6-21.5   c10.6,0,14.6,5.8,14.5,11.3h-12.2c0-1.5-0.2-3.2-2.6-3.2c-4.5,0-6.5,9.5-6.5,14.3c0,3.1,0.9,4.9,2.9,4.9c2.7,0,3.5-2.3,4-4.5   l0.1-0.7h-3.7l1.7-7.2h15.6C913.4-893.8,912.9-891.2,912.6-889.2z"></path>		<path class="st53" d="M936.9-923l-7.2,33.8h-12.4l7.2-33.8H936.9z"></path>		<path class="st53" d="M971.3-909.7c0,7.1-3.1,21.4-19.9,21.4c-10,0-14.5-5.3-14.5-13.9c0-8.5,4.6-21.6,19.6-21.6   C965.5-923.9,971.3-918.8,971.3-909.7z M949.6-900.8c0,2.9,0.6,4.3,2.7,4.3c4.8,0,6.4-13.2,6.4-15.2c0-3-0.6-4-2.7-4   C951.5-915.7,949.6-904,949.6-900.8z M971.6-932.1l-9.8,6.5h-9.7l6.8-6.5H971.6z"></path>		<path class="st53" d="M971.7-889.2l7.2-33.8H993c0,0,1.2,17.4,1.2,17.4h0.3c0.5-4,1.5-9.7,2.5-14.4l0.6-3h11.2l-7.2,33.8H988   c0,0-1.3-18.8-1.3-18.8h-0.2c-0.5,4.2-1.7,9.9-2.9,15.4l-0.7,3.5H971.7z"></path>		<path class="st53" d="M850-850.9c-2.1,7.2-7.7,11.8-17.2,11.8c-10.3,0-14-6-14-13.9c0-9,4.9-21.6,19.1-21.6   c11.8,0,14.4,7,14.2,12.4h-12.3c0.2-2.6,0-4.2-2.2-4.2c-3.8,0-5.9,9.6-5.9,15.1c0,2.4,0.7,4,2.4,4c2.2,0,3-1.6,3.6-3.5H850z"></path>		<path class="st53" d="M878.4-852.7h-13l-0.9,4.4h15.2l-2.7,8.3h-26.2l7.2-33.8h25.3l-1.8,8.4h-13.5l-0.9,4.3h13L878.4-852.7z"></path>		<path class="st53" d="M881.3-839.9l7.2-33.8h14.2c0,0,1.2,17.4,1.2,17.4h0.3c0.5-4,1.5-9.7,2.5-14.4l0.6-3h11.2l-7.2,33.8h-13.7   c0,0-1.3-18.8-1.3-18.8H896c-0.5,4.2-1.7,9.9-2.9,15.4l-0.7,3.5H881.3z"></path>		<path class="st53" d="M928.1-865.4h-8l1.8-8.4h28.3l-1.8,8.4h-7.9l-5.4,25.4h-12.4L928.1-865.4z"></path>		<path class="st53" d="M961.2-852.3l-2.6,12.3h-12l7.2-33.8h16c8.2,0,11.7,3.7,11.7,8.6s-3.2,7.7-7.1,8.8c2.5,1.4,4,3.5,2.7,9.8   c-1.1,5.4-1,6.6-1,6.7h-11.7c0-0.2,0-3,1-7.5c0.8-3.5,0-4.8-2.1-4.8H961.2z M962.7-859.8h2.2c2.9,0,3.8-2,3.8-3.7   c0-1.8-0.9-2.7-2.7-2.7h-2L962.7-859.8z"></path>		<path class="st53" d="M1017.1-860.4c0,7.1-3.1,21.4-19.9,21.4c-10,0-14.5-5.3-14.5-13.9c0-8.5,4.6-21.6,19.6-21.6   C1011.4-874.6,1017.1-869.6,1017.1-860.4z M995.5-851.5c0,2.9,0.6,4.3,2.7,4.3c4.8,0,6.4-13.2,6.4-15.2c0-3-0.6-4-2.7-4   C997.4-866.4,995.5-854.7,995.5-851.5z"></path>	</g>	<path class="st53" d="M1043.3-812.6H630.6c-2.2,0-4-1.8-4-4s1.8-4,4-4h412.7c2.2,0,4,1.8,4,4S1045.5-812.6,1043.3-812.6z"></path></g><g>	<path class="st54" d="M173.9-297.9c1.1,0,2.1,0.3,3,1c0.9,0.6,1.4,1.5,1.7,2.6l13.9,47.1h-14.1l-8.9-35c-0.2-0.8-0.4-1.7-0.5-2.7  s-0.3-1.8-0.4-2.7h-2c-0.1,0.8-0.2,1.7-0.4,2.7c-0.2,1-0.4,1.9-0.6,2.7l-8.9,35h-14.1l13.9-47.1c0.3-1.1,0.9-2,1.7-2.6  c0.9-0.6,1.8-1,3-1H173.9z M180.8-269.1v9.9h-26.7v-9.9H180.8z"></path>	<path class="st54" d="M207.9-298.1c2.7,0,5.6,0,8.5,0c2.9,0,5.7,0.1,8.5,0.2c2.8,0.1,5.3,0.3,7.5,0.6l-0.7,9.8h-18  c-1.1,0-2,0.3-2.6,0.8c-0.6,0.6-0.9,1.3-0.9,2.3v37.1h-13.8v-40c0-3.3,1.1-5.9,3.2-7.9C201.7-297.1,204.5-298.1,207.9-298.1z   M197.7-277H229v9.3h-31.3V-277z"></path>	<path class="st54" d="M259.2-298.9c4.2,0,7.8,0.4,10.7,1.2c2.9,0.8,5.2,2.2,7.1,4.2s3.1,4.7,3.9,8.1c0.8,3.4,1.2,7.7,1.2,12.9  c0,5.1-0.4,9.4-1.2,12.8c-0.8,3.4-2.1,6.1-3.9,8.1s-4.2,3.4-7.1,4.2c-2.9,0.8-6.4,1.2-10.7,1.2c-4.2,0-7.7-0.4-10.6-1.2  c-2.9-0.8-5.3-2.2-7.1-4.2c-1.8-2-3.1-4.7-3.9-8.1c-0.8-3.4-1.2-7.7-1.2-12.8c0-5.2,0.4-9.5,1.2-12.9c0.8-3.4,2.1-6.1,3.9-8.1  c1.8-2,4.2-3.4,7.1-4.2C251.5-298.5,255.1-298.9,259.2-298.9z M259.2-288.4c-2.2,0-3.8,0.4-5,1.3c-1.2,0.9-2,2.5-2.5,4.8  c-0.5,2.3-0.7,5.6-0.7,9.8c0,4.2,0.2,7.5,0.7,9.8c0.5,2.3,1.3,3.9,2.5,4.8c1.2,0.9,2.9,1.3,5,1.3c2.2,0,3.8-0.4,5-1.3  c1.2-0.9,2-2.5,2.5-4.8c0.5-2.3,0.7-5.6,0.7-9.8c0-4.2-0.2-7.5-0.7-9.8c-0.5-2.3-1.3-3.9-2.5-4.8  C263.1-287.9,261.4-288.4,259.2-288.4z"></path>	<path class="st54" d="M310-298.7c2.5,0,4.7,0.1,6.5,0.2c1.8,0.1,3.4,0.3,4.9,0.6c1.5,0.2,3,0.6,4.6,1l-1,10.1  c-1.7-0.1-3.2-0.2-4.6-0.2c-1.4,0-2.9,0-4.6-0.1c-1.6,0-3.6,0-5.8,0c-2,0-3.6,0.4-4.7,1.2c-1.2,0.8-1.9,2.3-2.4,4.4  c-0.4,2.1-0.7,5.1-0.7,8.9s0.2,6.8,0.7,8.9c0.4,2.1,1.2,3.6,2.4,4.4c1.2,0.8,2.7,1.2,4.7,1.2c3.6,0,6.6,0,8.9-0.1  c2.4-0.1,4.8-0.3,7.2-0.5l1,10.1c-2.5,0.8-5,1.4-7.5,1.8s-5.8,0.5-9.6,0.5c-5.4,0-9.8-0.8-13.1-2.5c-3.3-1.7-5.6-4.4-7.1-8.3  c-1.4-3.8-2.2-9-2.2-15.4s0.7-11.6,2.2-15.4c1.4-3.8,3.8-6.6,7.1-8.3C300.2-297.9,304.6-298.7,310-298.7z"></path>	<path class="st54" d="M359.7-297.9c1.1,0,2.1,0.3,3,1c0.9,0.6,1.4,1.5,1.7,2.6l13.9,47.1h-14.1l-8.9-35c-0.2-0.8-0.4-1.7-0.5-2.7  c-0.1-1-0.3-1.8-0.4-2.7h-2c-0.1,0.8-0.2,1.7-0.4,2.7c-0.2,1-0.4,1.9-0.6,2.7l-8.9,35h-14.1l13.9-47.1c0.3-1.1,0.9-2,1.7-2.6  c0.9-0.6,1.8-1,3-1H359.7z M366.7-269.1v9.9H340v-9.9H366.7z"></path>	<path class="st54" d="M417.8-297.9v10.5h-43.2v-10.5H417.8z M403.2-297.9v50.7h-13.8v-50.7H403.2z"></path></g><g>	<path class="st54" d="M155-234.7c2.3,0,4.2,0.2,5.6,0.7c1.5,0.5,2.5,1.2,3.2,2.3c0.7,1.1,1,2.6,1,4.5c0,1-0.1,2-0.4,2.9  c-0.3,0.9-0.8,1.6-1.5,2.1c-0.7,0.5-1.7,0.9-2.9,1v0.2c0.5,0,0.9,0.2,1.4,0.4c0.5,0.2,1,0.6,1.4,1.2c0.4,0.5,0.8,1.3,0.9,2.2l2,7.6  h-7l-1.8-7.4c-0.2-0.8-0.4-1.3-0.8-1.5c-0.4-0.2-0.9-0.4-1.6-0.4c-1.7,0-3.1,0-4.3,0s-2.1,0-2.8,0c-0.8,0-1.5-0.1-2.2-0.1l0.1-4.7  h9.4c0.9,0,1.5-0.1,2-0.3c0.5-0.2,0.8-0.5,1-0.9c0.2-0.4,0.3-1.1,0.3-1.8c0-0.8-0.1-1.4-0.3-1.9s-0.5-0.7-1-0.9  c-0.5-0.2-1.1-0.3-2-0.3c-2.4,0-4.4,0-6,0c-1.6,0-2.7,0.1-3.3,0.1l-0.5-4.6c1-0.1,2-0.2,3-0.3c0.9,0,1.9-0.1,3.1-0.1  S153.5-234.7,155-234.7z M151.6-234.4v24.7H145v-24.7H151.6z"></path>	<path class="st54" d="M174.1-234.5c1.4,0,2.8,0,4.2,0c1.4,0,2.9,0,4.3,0.1c1.4,0.1,2.7,0.2,3.8,0.3l-0.3,4.8h-9.2  c-0.5,0-0.9,0.1-1.2,0.4c-0.3,0.3-0.4,0.6-0.4,1.1v11.4c0,0.5,0.1,0.9,0.4,1.1c0.3,0.3,0.7,0.4,1.2,0.4h9.2l0.3,4.8  c-1.2,0.1-2.4,0.2-3.8,0.3c-1.4,0.1-2.8,0.1-4.3,0.1c-1.4,0-2.9,0-4.2,0c-1.6,0-3-0.5-4-1.5c-1-1-1.5-2.3-1.5-3.8v-14.3  c0-1.6,0.5-2.9,1.5-3.8C171.1-234,172.5-234.5,174.1-234.5z M169.2-224.7h15.6v4.5h-15.6V-224.7z"></path>	<path class="st54" d="M200.1-234.9c1.2,0,2.3,0,3.2,0.1s1.8,0.2,2.6,0.3c0.8,0.1,1.6,0.3,2.4,0.6l-0.5,4.9c-0.9,0-1.7,0-2.5-0.1  c-0.8,0-1.6,0-2.5,0c-0.8,0-1.8,0-2.8,0c-0.8,0-1.5,0.1-2.1,0.3c-0.6,0.2-1,0.5-1.3,1.1c-0.3,0.5-0.6,1.3-0.7,2.2  c-0.1,0.9-0.2,2.1-0.2,3.6c0,1.8,0.1,3.3,0.3,4.3c0.2,1,0.6,1.7,1.1,2.1c0.5,0.4,1.3,0.6,2.2,0.6c0.6,0,1.2,0,1.7-0.1  c0.5-0.1,1-0.2,1.4-0.4c0.4-0.2,0.8-0.3,1.1-0.4l0.7,2.9c-0.3,0.5-0.8,1-1.5,1.6s-1.5,1.1-2.5,1.5s-2.2,0.6-3.5,0.6  c-1.9,0-3.4-0.4-4.6-1.3c-1.2-0.9-2.1-2.2-2.6-4.1c-0.6-1.9-0.8-4.3-0.8-7.4c0-3.2,0.4-5.7,1.1-7.6c0.7-1.9,1.9-3.2,3.6-4  C195.1-234.5,197.3-234.9,200.1-234.9z M209.3-223.9v14.2h-4.9l-0.9-3.8l-0.6-1.2v-9.2H209.3z"></path>	<path class="st54" d="M219.7-234.4v24.7h-6.6v-24.7H219.7z"></path>	<path class="st54" d="M234.4-234.9c2,0,3.8,0.2,5.2,0.6c1.4,0.4,2.5,1.1,3.4,2.1s1.5,2.3,1.9,3.9c0.4,1.6,0.6,3.7,0.6,6.3  c0,2.5-0.2,4.6-0.6,6.2c-0.4,1.7-1,3-1.9,3.9c-0.9,1-2,1.7-3.4,2.1c-1.4,0.4-3.1,0.6-5.2,0.6c-2,0-3.7-0.2-5.2-0.6  c-1.4-0.4-2.6-1.1-3.4-2.1c-0.9-1-1.5-2.3-1.9-3.9c-0.4-1.7-0.6-3.7-0.6-6.2c0-2.5,0.2-4.6,0.6-6.3c0.4-1.6,1-2.9,1.9-3.9  c0.9-1,2-1.6,3.4-2.1C230.7-234.7,232.4-234.9,234.4-234.9z M234.4-229.8c-1,0-1.9,0.2-2.4,0.6s-1,1.2-1.2,2.3  c-0.2,1.1-0.4,2.7-0.4,4.8c0,2,0.1,3.6,0.4,4.8c0.2,1.1,0.6,1.9,1.2,2.3c0.6,0.4,1.4,0.6,2.4,0.6s1.9-0.2,2.4-0.6  c0.6-0.4,1-1.2,1.2-2.3c0.2-1.1,0.3-2.7,0.3-4.8c0-2-0.1-3.6-0.3-4.8c-0.2-1.1-0.6-1.9-1.2-2.3S235.4-229.8,234.4-229.8z   M238.8-244.1l2.6,4.2l-8.6,3.8l-1.8-2.7L238.8-244.1z"></path>	<path class="st54" d="M270.9-234.4v22.3c0,1.6-0.8,2.4-2.3,2.4h-3c-0.7,0-1.2-0.2-1.6-0.5s-0.7-0.8-1.1-1.5l-6-10.5  c-0.3-0.6-0.6-1.2-0.9-1.9c-0.3-0.7-0.5-1.4-0.7-2.1H255c0.1,0.7,0.2,1.4,0.2,2.1c0.1,0.7,0.1,1.4,0.1,2.1v12.3H249V-232  c0-1.6,0.8-2.4,2.4-2.4h3c0.7,0,1.2,0.2,1.6,0.5c0.3,0.3,0.7,0.8,1.1,1.5l5.8,10.1c0.3,0.6,0.7,1.2,1,1.9c0.3,0.7,0.6,1.4,0.9,2.2  h0.3c-0.1-0.7-0.1-1.5-0.2-2.2c0-0.7-0.1-1.4-0.1-2.1l0-11.8H270.9z"></path>	<path class="st54" d="M292.8-234.8c1.2,0,2.3,0,3.2,0.1s1.7,0.2,2.4,0.3c0.7,0.1,1.5,0.3,2.2,0.5l-0.5,4.9c-0.8,0-1.6-0.1-2.3-0.1  c-0.7,0-1.4,0-2.2,0c-0.8,0-1.7,0-2.8,0c-1,0-1.7,0.2-2.3,0.6c-0.6,0.4-0.9,1.1-1.2,2.1c-0.2,1-0.3,2.5-0.3,4.3  c0,1.9,0.1,3.3,0.3,4.3c0.2,1,0.6,1.7,1.2,2.1c0.6,0.4,1.3,0.6,2.3,0.6c1.7,0,3.2,0,4.3-0.1c1.2,0,2.3-0.1,3.5-0.2l0.5,4.9  c-1.2,0.4-2.4,0.7-3.7,0.9c-1.3,0.2-2.8,0.2-4.7,0.2c-2.6,0-4.8-0.4-6.3-1.2c-1.6-0.8-2.7-2.2-3.4-4c-0.7-1.9-1.1-4.4-1.1-7.5  s0.4-5.6,1.1-7.5s1.8-3.2,3.4-4S290.2-234.8,292.8-234.8z"></path>	<path class="st54" d="M309.5-234.5c1.4,0,2.8,0,4.2,0c1.4,0,2.9,0,4.3,0.1c1.4,0.1,2.7,0.2,3.8,0.3l-0.3,4.8h-9.2  c-0.5,0-0.9,0.1-1.2,0.4c-0.3,0.3-0.4,0.6-0.4,1.1v11.4c0,0.5,0.1,0.9,0.4,1.1c0.3,0.3,0.7,0.4,1.2,0.4h9.2l0.3,4.8  c-1.2,0.1-2.4,0.2-3.8,0.3c-1.4,0.1-2.8,0.1-4.3,0.1c-1.4,0-2.9,0-4.2,0c-1.6,0-3-0.5-4-1.5c-1-1-1.5-2.3-1.5-3.8v-14.3  c0-1.6,0.5-2.9,1.5-3.8S307.8-234.5,309.5-234.5z M304.6-224.7h15.6v4.5h-15.6V-224.7z"></path>	<path class="st54" d="M347-234.4v22.3c0,1.6-0.8,2.4-2.3,2.4h-3c-0.7,0-1.2-0.2-1.6-0.5s-0.7-0.8-1.1-1.5l-6-10.5  c-0.3-0.6-0.6-1.2-0.9-1.9c-0.3-0.7-0.5-1.4-0.7-2.1h-0.3c0.1,0.7,0.2,1.4,0.2,2.1c0.1,0.7,0.1,1.4,0.1,2.1v12.3h-6.3V-232  c0-1.6,0.8-2.4,2.4-2.4h3c0.7,0,1.2,0.2,1.6,0.5c0.3,0.3,0.7,0.8,1.1,1.5l5.8,10.1c0.3,0.6,0.7,1.2,1,1.9c0.3,0.7,0.6,1.4,0.9,2.2  h0.3c-0.1-0.7-0.1-1.5-0.2-2.2c0-0.7-0.1-1.4-0.1-2.1l0-11.8H347z"></path>	<path class="st54" d="M370.5-234.4v5.1h-21v-5.1H370.5z M363.4-234.4v24.7h-6.7v-24.7H363.4z"></path>	<path class="st54" d="M383.2-234.7c2.3,0,4.2,0.2,5.6,0.7c1.5,0.5,2.5,1.2,3.2,2.3c0.7,1.1,1,2.6,1,4.5c0,1-0.1,2-0.4,2.9  s-0.8,1.6-1.5,2.1s-1.7,0.9-2.9,1v0.2c0.5,0,0.9,0.2,1.4,0.4c0.5,0.2,1,0.6,1.4,1.2c0.4,0.5,0.8,1.3,0.9,2.2l2,7.6h-7l-1.8-7.4  c-0.2-0.8-0.4-1.3-0.8-1.5s-0.9-0.4-1.6-0.4c-1.7,0-3.1,0-4.3,0c-1.1,0-2.1,0-2.8,0c-0.8,0-1.5-0.1-2.2-0.1l0.1-4.7h9.4  c0.9,0,1.5-0.1,2-0.3c0.5-0.2,0.8-0.5,1-0.9c0.2-0.4,0.3-1.1,0.3-1.8c0-0.8-0.1-1.4-0.3-1.9s-0.5-0.7-1-0.9s-1.1-0.3-2-0.3  c-2.4,0-4.4,0-6,0c-1.6,0-2.7,0.1-3.3,0.1l-0.5-4.6c1-0.1,2-0.2,3-0.3c0.9,0,1.9-0.1,3.1-0.1C380.3-234.7,381.6-234.7,383.2-234.7z   M379.7-234.4v24.7h-6.6v-24.7H379.7z"></path>	<path class="st54" d="M407-234.9c2,0,3.8,0.2,5.2,0.6c1.4,0.4,2.5,1.1,3.4,2.1s1.5,2.3,1.9,3.9c0.4,1.6,0.6,3.7,0.6,6.3  c0,2.5-0.2,4.6-0.6,6.2c-0.4,1.7-1,3-1.9,3.9c-0.9,1-2,1.7-3.4,2.1c-1.4,0.4-3.1,0.6-5.2,0.6c-2,0-3.7-0.2-5.2-0.6  c-1.4-0.4-2.6-1.1-3.4-2.1c-0.9-1-1.5-2.3-1.9-3.9c-0.4-1.7-0.6-3.7-0.6-6.2c0-2.5,0.2-4.6,0.6-6.3c0.4-1.6,1-2.9,1.9-3.9  c0.9-1,2-1.6,3.4-2.1C403.3-234.7,405-234.9,407-234.9z M407-229.8c-1,0-1.9,0.2-2.4,0.6s-1,1.2-1.2,2.3c-0.2,1.1-0.4,2.7-0.4,4.8  c0,2,0.1,3.6,0.4,4.8c0.2,1.1,0.6,1.9,1.2,2.3c0.6,0.4,1.4,0.6,2.4,0.6s1.9-0.2,2.4-0.6c0.6-0.4,1-1.2,1.2-2.3  c0.2-1.1,0.3-2.7,0.3-4.8c0-2-0.1-3.6-0.3-4.8c-0.2-1.1-0.6-1.9-1.2-2.3S408.1-229.8,407-229.8z"></path></g><g>	<g>		<linearGradient id="SVGID_51_" gradientUnits="userSpaceOnUse" x1="24.8467" y1="-322.8125" x2="105.2284" y2="-203.9626">			<stop offset="0" style="stop-color:#2A8A70"></stop>			<stop offset="1" style="stop-color:#72AD55"></stop>		</linearGradient>		<path class="st55" d="M67.6-252.2L67.6-252.2c-4.1,0-7.5-3.4-7.5-7.5l0,0c0-4.1,3.4-7.5,7.5-7.5h0c4.1,0,7.5,3.4,7.5,7.5l0,0   C75-255.5,71.7-252.2,67.6-252.2z"></path>		<linearGradient id="SVGID_52_" gradientUnits="userSpaceOnUse" x1="54.426" y1="-342.8178" x2="134.8076" y2="-223.9678">			<stop offset="0" style="stop-color:#2A8A70"></stop>			<stop offset="1" style="stop-color:#72AD55"></stop>		</linearGradient>		<path class="st56" d="M62.6-321.7L62.6-321.7c-0.4,0.4-0.9,0.4-1.3,0h0c-5.5-5.5-5.5-14.4,0-19.9h0c0.4-0.4,0.9-0.4,1.3,0h0   C68.1-336.1,68.1-327.2,62.6-321.7z"></path>		<linearGradient id="SVGID_53_" gradientUnits="userSpaceOnUse" x1="23.047" y1="-321.5953" x2="103.4286" y2="-202.7453">			<stop offset="0" style="stop-color:#2A8A70"></stop>			<stop offset="1" style="stop-color:#72AD55"></stop>		</linearGradient>		<path class="st57" d="M31.8-308.2L31.8-308.2c-0.1,0.5-0.6,0.8-1.1,0.6h0c-7.5-2.2-11.7-10-9.6-17.4h0c0.1-0.5,0.6-0.8,1.1-0.6h0   C29.6-323.5,33.9-315.7,31.8-308.2z"></path>		<linearGradient id="SVGID_54_" gradientUnits="userSpaceOnUse" x1="38.6902" y1="-332.1753" x2="119.0718" y2="-213.3253">			<stop offset="0" style="stop-color:#2A8A70"></stop>			<stop offset="1" style="stop-color:#72AD55"></stop>		</linearGradient>		<path class="st58" d="M58.4-296.6L58.4-296.6c-0.3,0.4-0.9,0.5-1.3,0.2h0c-6.3-4.6-7.6-13.4-3.1-19.6h0c0.3-0.4,0.9-0.5,1.3-0.2h0   C61.6-311.6,63-302.8,58.4-296.6z"></path>		<linearGradient id="SVGID_55_" gradientUnits="userSpaceOnUse" x1="20.8193" y1="-320.0887" x2="101.2009" y2="-201.2387">			<stop offset="0" style="stop-color:#2A8A70"></stop>			<stop offset="1" style="stop-color:#72AD55"></stop>		</linearGradient>		<path class="st59" d="M48.2-287.3L48.2-287.3c0.1,0.5-0.2,1-0.7,1.1h0c-7.6,1.5-15-3.5-16.5-11.1l0,0c-0.1-0.5,0.2-1,0.7-1.1h0   C39.3-299.9,46.7-294.9,48.2-287.3z"></path>		<linearGradient id="SVGID_56_" gradientUnits="userSpaceOnUse" x1="6.8963" y1="-310.6721" x2="87.2779" y2="-191.8221">			<stop offset="0" style="stop-color:#2A8A70"></stop>			<stop offset="1" style="stop-color:#72AD55"></stop>		</linearGradient>		<path class="st60" d="M42.1-271.8L42.1-271.8c0.3,0.4,0.2,1-0.3,1.3l0,0c-6.5,4.2-15.2,2.4-19.5-4.1h0c-0.3-0.4-0.2-1,0.3-1.3h0   C29.2-280.1,37.9-278.3,42.1-271.8z"></path>		<linearGradient id="SVGID_57_" gradientUnits="userSpaceOnUse" x1="20.4218" y1="-319.8198" x2="100.8034" y2="-200.9698">			<stop offset="0" style="stop-color:#2A8A70"></stop>			<stop offset="1" style="stop-color:#72AD55"></stop>		</linearGradient>		<path class="st61" d="M60.8-269.2L60.8-269.2c0.2,0.4,0,0.9-0.4,1h0c-6.1,2.5-13.1-0.4-15.6-6.5h0c-0.2-0.4,0-0.9,0.4-1l0,0   C51.3-278.2,58.3-275.3,60.8-269.2z"></path>		<linearGradient id="SVGID_58_" gradientUnits="userSpaceOnUse" x1="7.6733" y1="-311.1977" x2="88.0549" y2="-192.3477">			<stop offset="0" style="stop-color:#2A8A70"></stop>			<stop offset="1" style="stop-color:#72AD55"></stop>		</linearGradient>		<path class="st62" d="M22.6-295.6L22.6-295.6c0.1,0.5-0.3,1-0.8,1h0c-7.7,0.9-14.7-4.6-15.6-12.3h0c-0.1-0.5,0.3-1,0.8-1h0   C14.7-308.8,21.7-303.3,22.6-295.6z"></path>		<linearGradient id="SVGID_59_" gradientUnits="userSpaceOnUse" x1="-4.6144" y1="-302.8871" x2="75.7672" y2="-184.0372">			<stop offset="0" style="stop-color:#2A8A70"></stop>			<stop offset="1" style="stop-color:#72AD55"></stop>		</linearGradient>		<path class="st63" d="M18.5-278.6L18.5-278.6c0.2,0.5-0.1,1-0.6,1.2h0c-7.3,2.5-15.3-1.4-17.8-8.8h0c-0.2-0.5,0.1-1,0.6-1.2l0,0   C8-289.8,16-285.9,18.5-278.6z"></path>		<linearGradient id="SVGID_60_" gradientUnits="userSpaceOnUse" x1="-12.341" y1="-297.6614" x2="68.0406" y2="-178.8114">			<stop offset="0" style="stop-color:#2A8A70"></stop>			<stop offset="1" style="stop-color:#72AD55"></stop>		</linearGradient>		<path class="st64" d="M20.6-262.9L20.6-262.9c0.3,0.4,0.2,1-0.2,1.3l0,0c-6.2,4.7-15,3.4-19.7-2.8h0c-0.3-0.4-0.2-1,0.2-1.3l0,0   C7.1-270.3,15.9-269.1,20.6-262.9z"></path>		<linearGradient id="SVGID_61_" gradientUnits="userSpaceOnUse" x1="73.6958" y1="-329.5143" x2="83.9084" y2="-329.5143">			<stop offset="0" style="stop-color:#2A8A70"></stop>			<stop offset="1" style="stop-color:#72AD55"></stop>		</linearGradient>		<path class="st65" d="M75.5-320.1L75.5-320.1c0.2,0.4,0.8,0.6,1.2,0.3l0,0c6.8-3.8,9.1-12.4,5.3-19.2h0c-0.2-0.4-0.8-0.6-1.2-0.3   h0C74.1-335.4,71.7-326.9,75.5-320.1z"></path>		<linearGradient id="SVGID_62_" gradientUnits="userSpaceOnUse" x1="64.9779" y1="-349.9544" x2="145.3595" y2="-231.1044">			<stop offset="0" style="stop-color:#2A8A70"></stop>			<stop offset="1" style="stop-color:#72AD55"></stop>		</linearGradient>		<path class="st66" d="M75.5-320.1L75.5-320.1c0.2,0.4,0.8,0.6,1.2,0.3l0,0c6.8-3.8,9.1-12.4,5.3-19.2h0c-0.2-0.4-0.8-0.6-1.2-0.3   h0C74.1-335.4,71.7-326.9,75.5-320.1z"></path>		<linearGradient id="SVGID_63_" gradientUnits="userSpaceOnUse" x1="39.727" y1="-332.8764" x2="120.1086" y2="-214.0265">			<stop offset="0" style="stop-color:#2A8A70"></stop>			<stop offset="1" style="stop-color:#72AD55"></stop>		</linearGradient>		<path class="st67" d="M45.4-317.7L45.4-317.7c0.4,0.3,1,0.1,1.3-0.3l0,0c3.9-6.7,1.6-15.3-5.1-19.2h0c-0.4-0.3-1-0.1-1.3,0.3h0   C36.3-330.1,38.6-321.5,45.4-317.7z"></path>		<linearGradient id="SVGID_64_" gradientUnits="userSpaceOnUse" x1="73.0504" y1="-355.4141" x2="153.432" y2="-236.5641">			<stop offset="0" style="stop-color:#2A8A70"></stop>			<stop offset="1" style="stop-color:#72AD55"></stop>		</linearGradient>		<path class="st68" d="M90.9-313L90.9-313c-0.5,0.1-1-0.2-1.1-0.7l0,0c-1.5-7.6,3.5-15,11.1-16.5h0c0.5-0.1,1,0.2,1.1,0.7h0   C103.5-321.9,98.5-314.5,90.9-313z"></path>		<linearGradient id="SVGID_65_" gradientUnits="userSpaceOnUse" x1="76.3206" y1="-357.6258" x2="156.7022" y2="-238.7758">			<stop offset="0" style="stop-color:#2A8A70"></stop>			<stop offset="1" style="stop-color:#72AD55"></stop>		</linearGradient>		<path class="st69" d="M100.2-304.5L100.2-304.5c0,0.5,0.3,1,0.8,1h0c7.7,0.8,14.6-4.9,15.4-12.6v0c0-0.5-0.3-1-0.8-1h0   C107.9-317.9,101-312.2,100.2-304.5z"></path>		<linearGradient id="SVGID_66_" gradientUnits="userSpaceOnUse" x1="74.5149" y1="-356.4045" x2="154.8965" y2="-237.5545">			<stop offset="0" style="stop-color:#2A8A70"></stop>			<stop offset="1" style="stop-color:#72AD55"></stop>		</linearGradient>		<path class="st70" d="M109.6-287.1L109.6-287.1c-0.4-0.2-0.6-0.8-0.4-1.2l0,0c3.6-6.9,12.1-9.6,19-6l0,0c0.4,0.2,0.6,0.8,0.4,1.2   h0C125-286.2,116.5-283.5,109.6-287.1z"></path>		<linearGradient id="SVGID_67_" gradientUnits="userSpaceOnUse" x1="66.8416" y1="-351.2149" x2="147.2233" y2="-232.3649">			<stop offset="0" style="stop-color:#2A8A70"></stop>			<stop offset="1" style="stop-color:#72AD55"></stop>		</linearGradient>		<path class="st71" d="M111.7-271.4L111.7-271.4c-0.4,0.3-0.4,0.9-0.1,1.3l0,0c5.2,5.8,14.1,6.2,19.9,1l0,0   c0.4-0.3,0.4-0.9,0.1-1.3l0,0C126.3-276.2,117.4-276.7,111.7-271.4z"></path>		<linearGradient id="SVGID_68_" gradientUnits="userSpaceOnUse" x1="53.7824" y1="-342.3826" x2="134.1641" y2="-223.5326">			<stop offset="0" style="stop-color:#2A8A70"></stop>			<stop offset="1" style="stop-color:#72AD55"></stop>		</linearGradient>		<path class="st72" d="M91.6-271.9L91.6-271.9c-0.3,0.4-0.2,0.9,0.2,1.2h0c5.9,3.9,13.9,2.4,17.8-3.5l0,0c0.3-0.4,0.2-0.9-0.2-1.2   l0,0C103.5-279.4,95.6-277.8,91.6-271.9z"></path>		<linearGradient id="SVGID_69_" gradientUnits="userSpaceOnUse" x1="56.1262" y1="-343.9677" x2="136.5078" y2="-225.1177">			<stop offset="0" style="stop-color:#2A8A70"></stop>			<stop offset="1" style="stop-color:#72AD55"></stop>		</linearGradient>		<path class="st73" d="M84.4-286.1L84.4-286.1c-0.1,0.4,0.1,0.9,0.6,1h0c6.8,2,13.9-1.9,15.9-8.7l0,0c0.1-0.4-0.1-0.9-0.6-1h0   C93.5-296.8,86.4-292.9,84.4-286.1z"></path>		<linearGradient id="SVGID_70_" gradientUnits="userSpaceOnUse" x1="54.1164" y1="-342.6084" x2="134.498" y2="-223.7585">			<stop offset="0" style="stop-color:#2A8A70"></stop>			<stop offset="1" style="stop-color:#72AD55"></stop>		</linearGradient>		<path class="st74" d="M74.3-298.2L74.3-298.2c0.1,0.4,0.6,0.7,1.1,0.5h0c6.7-2.3,10.3-9.6,8-16.3h0c-0.1-0.4-0.6-0.7-1.1-0.5h0   C75.6-312.2,72-304.9,74.3-298.2z"></path>		<linearGradient id="SVGID_71_" gradientUnits="userSpaceOnUse" x1="41.6303" y1="-334.1637" x2="122.0119" y2="-215.3137">			<stop offset="0" style="stop-color:#2A8A70"></stop>			<stop offset="1" style="stop-color:#72AD55"></stop>		</linearGradient>		<path class="st75" d="M74.6-270.7L74.6-270.7c-0.2,0.4,0,0.9,0.4,1h0c6.2,2.4,13.1-0.7,15.5-6.9h0c0.2-0.4,0-0.9-0.4-1h0   C83.9-279.9,77-276.8,74.6-270.7z"></path>		<linearGradient id="SVGID_72_" gradientUnits="userSpaceOnUse" x1="37.9129" y1="-331.6495" x2="118.2945" y2="-212.7995">			<stop offset="0" style="stop-color:#2A8A70"></stop>			<stop offset="1" style="stop-color:#72AD55"></stop>		</linearGradient>		<path class="st76" d="M68-273.6L68-273.6c0.1,0.4,0.6,0.6,1,0.5h0c6.3-2.1,9.6-8.9,7.5-15.2l0,0c-0.1-0.4-0.6-0.6-1-0.5l0,0   C69.2-286.7,65.8-279.9,68-273.6z"></path>		<linearGradient id="SVGID_73_" gradientUnits="userSpaceOnUse" x1="29.1497" y1="-325.7227" x2="109.5313" y2="-206.8727">			<stop offset="0" style="stop-color:#2A8A70"></stop>			<stop offset="1" style="stop-color:#72AD55"></stop>		</linearGradient>		<path class="st77" d="M65-273.1L65-273.1c0.4,0,0.8-0.3,0.9-0.7v0c0.6-6.6-4.2-12.4-10.7-13.1h0c-0.4,0-0.8,0.3-0.9,0.7l0,0   C53.6-279.6,58.4-273.8,65-273.1z"></path>		<linearGradient id="SVGID_74_" gradientUnits="userSpaceOnUse" x1="14.1125" y1="-315.5526" x2="94.4941" y2="-196.7027">			<stop offset="0" style="stop-color:#2A8A70"></stop>			<stop offset="1" style="stop-color:#72AD55"></stop>		</linearGradient>		<path class="st78" d="M74.6-231.2c-0.9,8.3-0.3,20.3,2.8,33.1c0.2,0.9-0.9,1.4-1.5,0.8c-10.6-12-6.8-17.3-9.4-17.3   c-1.2,0-4.5,11.2-9.8,16.4c-0.6,0.6-1.5,0.2-1.3-0.6c2.4-10.7,5-28.9,5.4-32.5c1.6-15.7-7.7-22.6-14.2-26.8   c-0.7-0.4-0.2-1.5,0.6-1.3c5.7,1.7,15.2,5.4,19.6,13c0.6,1.1,2.2,1.1,2.9,0.1c3.4-5,11.8-14,16-18.4c0.5-0.6,1.5,0,1.2,0.7   c0,0-7.5,14.5-9.4,19.6C76.2-241,75-234.5,74.6-231.2z"></path>		<linearGradient id="SVGID_75_" gradientUnits="userSpaceOnUse" x1="31.0991" y1="-327.0412" x2="111.4808" y2="-208.1912">			<stop offset="0" style="stop-color:#2A8A70"></stop>			<stop offset="1" style="stop-color:#72AD55"></stop>		</linearGradient>		<path class="st79" d="M89.3-228.6c-1.5,7.9,1.9,18.8,4.1,31.7c0.1,0.9-0.6,1.4-1,0.8c-7.4-12-4.7-17.3-6.6-17.3   c-0.9,0,0.5,11.2-3.3,16.4c-0.4,0.6-1,0.2-0.9-0.6c1.7-10.7-4.7-18.7-2.6-32.1c2.5-16.8,7-21.6,10.9-26.3c0.3-0.4,0.9,0,0.7,0.5   c-1.8,3.5-4.1,8.7-2.6,10.5c3.4,4.1,15.9-15.5,20.5-22.1c0.3-0.4,0.9-0.2,0.8,0.3c-0.7,4.7-6.3,15.3-10.5,19.4   C90.1-239,90.3-233.7,89.3-228.6z"></path>		<linearGradient id="SVGID_76_" gradientUnits="userSpaceOnUse" x1="43.3806" y1="-335.3475" x2="123.7623" y2="-216.4976">			<stop offset="0" style="stop-color:#2A8A70"></stop>			<stop offset="1" style="stop-color:#72AD55"></stop>		</linearGradient>		<path class="st80" d="M99.2-256.2c-0.8,2.1-2.8,3.3-4.5,2.7c-1.7-0.6-2.4-2.9-1.6-5s2.8-3.3,4.5-2.7   C99.3-260.5,100-258.3,99.2-256.2z"></path>		<linearGradient id="SVGID_77_" gradientUnits="userSpaceOnUse" x1="-7.6468" y1="-300.8362" x2="72.7349" y2="-181.9863">			<stop offset="0" style="stop-color:#2A8A70"></stop>			<stop offset="1" style="stop-color:#72AD55"></stop>		</linearGradient>		<path class="st81" d="M43.7-228.6c1.5,7.9-1.9,18.8-4.1,31.7c-0.1,0.9,0.6,1.4,1,0.8c7.4-12,4.7-17.3,6.6-17.3   c0.9,0-0.5,11.2,3.3,16.4c0.4,0.6,1,0.2,0.9-0.6c-1.7-10.7,4.4-18.9,4.8-32.2c0.6-19-9.2-21.5-13.1-26.2c-0.3-0.4-0.9,0-0.7,0.5   c1.8,3.5,4.1,8.7,2.6,10.5c-3.4,4.1-15.9-15.5-20.5-22.1c-0.3-0.4-0.9-0.2-0.8,0.3c0.7,4.7,3.4,8.6,6.6,12.9   C37.6-244.3,42.7-233.7,43.7-228.6z"></path>		<linearGradient id="SVGID_78_" gradientUnits="userSpaceOnUse" x1="3.0348" y1="-308.0605" x2="83.4164" y2="-189.2105">			<stop offset="0" style="stop-color:#2A8A70"></stop>			<stop offset="1" style="stop-color:#72AD55"></stop>		</linearGradient>		<path class="st82" d="M33.8-256.9c0.8,2.1,2.8,3.3,4.5,2.7c1.7-0.6,2.4-2.9,1.6-5s-2.8-3.3-4.5-2.7   C33.7-261.3,32.9-259.1,33.8-256.9z"></path>	</g>	<linearGradient id="SVGID_79_" gradientUnits="userSpaceOnUse" x1="-5.4618" y1="-302.314" x2="74.9199" y2="-183.4641">		<stop offset="0" style="stop-color:#2A8A70"></stop>		<stop offset="1" style="stop-color:#72AD55"></stop>	</linearGradient>	<path class="st83" d="M114.7-194.6H17c-1.3,0-2.3-1-2.3-2.3s1-2.3,2.3-2.3h97.7c1.3,0,2.3,1,2.3,2.3S116-194.6,114.7-194.6z"></path></g><g>	<g>		<path class="st54" d="M173.9,44c1.1,0,2.1,0.3,3,1c0.9,0.6,1.4,1.5,1.7,2.6l13.9,47.1h-14.1l-8.9-35c-0.2-0.8-0.4-1.7-0.5-2.7   s-0.3-1.8-0.4-2.7h-2c-0.1,0.8-0.2,1.7-0.4,2.7c-0.2,1-0.4,1.9-0.6,2.7l-8.9,35h-14.1l13.9-47.1c0.3-1.1,0.9-2,1.7-2.6   c0.9-0.6,1.8-1,3-1H173.9z M180.8,72.8v9.9h-26.7v-9.9H180.8z"></path>		<path class="st54" d="M207.9,43.8c2.7,0,5.6,0,8.5,0c2.9,0,5.7,0.1,8.5,0.2c2.8,0.1,5.3,0.3,7.5,0.6l-0.7,9.8h-18   c-1.1,0-2,0.3-2.6,0.8c-0.6,0.6-0.9,1.3-0.9,2.3v37.1h-13.8v-40c0-3.3,1.1-5.9,3.2-7.9C201.7,44.8,204.5,43.8,207.9,43.8z    M197.7,64.9H229v9.3h-31.3V64.9z"></path>		<path class="st54" d="M259.2,43c4.2,0,7.8,0.4,10.7,1.2c2.9,0.8,5.2,2.2,7.1,4.2s3.1,4.7,3.9,8.1c0.8,3.4,1.2,7.7,1.2,12.9   c0,5.1-0.4,9.4-1.2,12.8c-0.8,3.4-2.1,6.1-3.9,8.1s-4.2,3.4-7.1,4.2c-2.9,0.8-6.4,1.2-10.7,1.2c-4.2,0-7.7-0.4-10.6-1.2   c-2.9-0.8-5.3-2.2-7.1-4.2c-1.8-2-3.1-4.7-3.9-8.1c-0.8-3.4-1.2-7.7-1.2-12.8c0-5.2,0.4-9.5,1.2-12.9c0.8-3.4,2.1-6.1,3.9-8.1   c1.8-2,4.2-3.4,7.1-4.2C251.5,43.4,255.1,43,259.2,43z M259.2,53.5c-2.2,0-3.8,0.4-5,1.3c-1.2,0.9-2,2.5-2.5,4.8   c-0.5,2.3-0.7,5.6-0.7,9.8c0,4.2,0.2,7.5,0.7,9.8c0.5,2.3,1.3,3.9,2.5,4.8c1.2,0.9,2.9,1.3,5,1.3c2.2,0,3.8-0.4,5-1.3   c1.2-0.9,2-2.5,2.5-4.8c0.5-2.3,0.7-5.6,0.7-9.8c0-4.2-0.2-7.5-0.7-9.8c-0.5-2.3-1.3-3.9-2.5-4.8   C263.1,53.9,261.4,53.5,259.2,53.5z"></path>		<path class="st54" d="M310,43.1c2.5,0,4.7,0.1,6.5,0.2c1.8,0.1,3.4,0.3,4.9,0.6c1.5,0.2,3,0.6,4.6,1l-1,10.1   c-1.7-0.1-3.2-0.2-4.6-0.2c-1.4,0-2.9,0-4.6-0.1c-1.6,0-3.6,0-5.8,0c-2,0-3.6,0.4-4.7,1.2c-1.2,0.8-1.9,2.3-2.4,4.4   c-0.4,2.1-0.7,5.1-0.7,8.9s0.2,6.8,0.7,8.9c0.4,2.1,1.2,3.6,2.4,4.4c1.2,0.8,2.7,1.2,4.7,1.2c3.6,0,6.6,0,8.9-0.1   c2.4-0.1,4.8-0.3,7.2-0.5l1,10.1c-2.5,0.8-5,1.4-7.5,1.8s-5.8,0.5-9.6,0.5c-5.4,0-9.8-0.8-13.1-2.5c-3.3-1.7-5.6-4.4-7.1-8.3   c-1.4-3.8-2.2-9-2.2-15.4s0.7-11.6,2.2-15.4c1.4-3.8,3.8-6.6,7.1-8.3C300.2,44,304.6,43.1,310,43.1z"></path>		<path class="st54" d="M359.7,44c1.1,0,2.1,0.3,3,1c0.9,0.6,1.4,1.5,1.7,2.6l13.9,47.1h-14.1l-8.9-35c-0.2-0.8-0.4-1.7-0.5-2.7   c-0.1-1-0.3-1.8-0.4-2.7h-2c-0.1,0.8-0.2,1.7-0.4,2.7c-0.2,1-0.4,1.9-0.6,2.7l-8.9,35h-14.1l13.9-47.1c0.3-1.1,0.9-2,1.7-2.6   c0.9-0.6,1.8-1,3-1H359.7z M366.7,72.8v9.9H340v-9.9H366.7z"></path>		<path class="st54" d="M417.8,44v10.5h-43.2V44H417.8z M403.2,44v50.7h-13.8V44H403.2z"></path>	</g>	<g>		<path class="st54" d="M155,107.1c2.3,0,4.2,0.2,5.6,0.7c1.5,0.5,2.5,1.2,3.2,2.3c0.7,1.1,1,2.6,1,4.5c0,1-0.1,2-0.4,2.9   c-0.3,0.9-0.8,1.6-1.5,2.1c-0.7,0.5-1.7,0.9-2.9,1v0.2c0.5,0,0.9,0.2,1.4,0.4c0.5,0.2,1,0.6,1.4,1.2c0.4,0.5,0.8,1.3,0.9,2.2   l2,7.6h-7l-1.8-7.4c-0.2-0.8-0.4-1.3-0.8-1.5c-0.4-0.2-0.9-0.4-1.6-0.4c-1.7,0-3.1,0-4.3,0s-2.1,0-2.8,0c-0.8,0-1.5-0.1-2.2-0.1   l0.1-4.7h9.4c0.9,0,1.5-0.1,2-0.3c0.5-0.2,0.8-0.5,1-0.9c0.2-0.4,0.3-1.1,0.3-1.8c0-0.8-0.1-1.4-0.3-1.9s-0.5-0.7-1-0.9   c-0.5-0.2-1.1-0.3-2-0.3c-2.4,0-4.4,0-6,0c-1.6,0-2.7,0.1-3.3,0.1l-0.5-4.6c1-0.1,2-0.2,3-0.3c0.9,0,1.9-0.1,3.1-0.1   S153.5,107.1,155,107.1z M151.6,107.5v24.7H145v-24.7H151.6z"></path>		<path class="st54" d="M174.1,107.4c1.4,0,2.8,0,4.2,0c1.4,0,2.9,0,4.3,0.1c1.4,0.1,2.7,0.2,3.8,0.3l-0.3,4.8h-9.2   c-0.5,0-0.9,0.1-1.2,0.4c-0.3,0.3-0.4,0.6-0.4,1.1v11.4c0,0.5,0.1,0.9,0.4,1.1c0.3,0.3,0.7,0.4,1.2,0.4h9.2l0.3,4.8   c-1.2,0.1-2.4,0.2-3.8,0.3c-1.4,0.1-2.8,0.1-4.3,0.1c-1.4,0-2.9,0-4.2,0c-1.6,0-3-0.5-4-1.5c-1-1-1.5-2.3-1.5-3.8v-14.3   c0-1.6,0.5-2.9,1.5-3.8C171.1,107.9,172.5,107.4,174.1,107.4z M169.2,117.2h15.6v4.5h-15.6V117.2z"></path>		<path class="st54" d="M200.1,107c1.2,0,2.3,0,3.2,0.1s1.8,0.2,2.6,0.3c0.8,0.1,1.6,0.3,2.4,0.6l-0.5,4.9c-0.9,0-1.7,0-2.5-0.1   c-0.8,0-1.6,0-2.5,0c-0.8,0-1.8,0-2.8,0c-0.8,0-1.5,0.1-2.1,0.3c-0.6,0.2-1,0.5-1.3,1.1c-0.3,0.5-0.6,1.3-0.7,2.2   c-0.1,0.9-0.2,2.1-0.2,3.6c0,1.8,0.1,3.3,0.3,4.3c0.2,1,0.6,1.7,1.1,2.1c0.5,0.4,1.3,0.6,2.2,0.6c0.6,0,1.2,0,1.7-0.1   c0.5-0.1,1-0.2,1.4-0.4c0.4-0.2,0.8-0.3,1.1-0.4l0.7,2.9c-0.3,0.5-0.8,1-1.5,1.6s-1.5,1.1-2.5,1.5s-2.2,0.6-3.5,0.6   c-1.9,0-3.4-0.4-4.6-1.3c-1.2-0.9-2.1-2.2-2.6-4.1c-0.6-1.9-0.8-4.3-0.8-7.4c0-3.2,0.4-5.7,1.1-7.6c0.7-1.9,1.9-3.2,3.6-4   C195.1,107.4,197.3,107,200.1,107z M209.3,118v14.2h-4.9l-0.9-3.8l-0.6-1.2V118H209.3z"></path>		<path class="st54" d="M219.7,107.5v24.7h-6.6v-24.7H219.7z"></path>		<path class="st54" d="M234.4,107c2,0,3.8,0.2,5.2,0.6c1.4,0.4,2.5,1.1,3.4,2.1s1.5,2.3,1.9,3.9c0.4,1.6,0.6,3.7,0.6,6.3   c0,2.5-0.2,4.6-0.6,6.2c-0.4,1.7-1,3-1.9,3.9c-0.9,1-2,1.7-3.4,2.1c-1.4,0.4-3.1,0.6-5.2,0.6c-2,0-3.7-0.2-5.2-0.6   c-1.4-0.4-2.6-1.1-3.4-2.1c-0.9-1-1.5-2.3-1.9-3.9c-0.4-1.7-0.6-3.7-0.6-6.2c0-2.5,0.2-4.6,0.6-6.3c0.4-1.6,1-2.9,1.9-3.9   c0.9-1,2-1.6,3.4-2.1C230.7,107.2,232.4,107,234.4,107z M234.4,112.1c-1,0-1.9,0.2-2.4,0.6s-1,1.2-1.2,2.3   c-0.2,1.1-0.4,2.7-0.4,4.8c0,2,0.1,3.6,0.4,4.8c0.2,1.1,0.6,1.9,1.2,2.3c0.6,0.4,1.4,0.6,2.4,0.6s1.9-0.2,2.4-0.6   c0.6-0.4,1-1.2,1.2-2.3c0.2-1.1,0.3-2.7,0.3-4.8c0-2-0.1-3.6-0.3-4.8c-0.2-1.1-0.6-1.9-1.2-2.3S235.4,112.1,234.4,112.1z    M238.8,97.7l2.6,4.2l-8.6,3.8l-1.8-2.7L238.8,97.7z"></path>		<path class="st54" d="M270.9,107.5v22.3c0,1.6-0.8,2.4-2.3,2.4h-3c-0.7,0-1.2-0.2-1.6-0.5s-0.7-0.8-1.1-1.5l-6-10.5   c-0.3-0.6-0.6-1.2-0.9-1.9c-0.3-0.7-0.5-1.4-0.7-2.1H255c0.1,0.7,0.2,1.4,0.2,2.1c0.1,0.7,0.1,1.4,0.1,2.1v12.3H249v-22.3   c0-1.6,0.8-2.4,2.4-2.4h3c0.7,0,1.2,0.2,1.6,0.5c0.3,0.3,0.7,0.8,1.1,1.5l5.8,10.1c0.3,0.6,0.7,1.2,1,1.9c0.3,0.7,0.6,1.4,0.9,2.2   h0.3c-0.1-0.7-0.1-1.5-0.2-2.2c0-0.7-0.1-1.4-0.1-2.1l0-11.8H270.9z"></path>		<path class="st54" d="M292.8,107.1c1.2,0,2.3,0,3.2,0.1s1.7,0.2,2.4,0.3c0.7,0.1,1.5,0.3,2.2,0.5l-0.5,4.9c-0.8,0-1.6-0.1-2.3-0.1   c-0.7,0-1.4,0-2.2,0c-0.8,0-1.7,0-2.8,0c-1,0-1.7,0.2-2.3,0.6c-0.6,0.4-0.9,1.1-1.2,2.1c-0.2,1-0.3,2.5-0.3,4.3   c0,1.9,0.1,3.3,0.3,4.3c0.2,1,0.6,1.7,1.2,2.1c0.6,0.4,1.3,0.6,2.3,0.6c1.7,0,3.2,0,4.3-0.1c1.2,0,2.3-0.1,3.5-0.2l0.5,4.9   c-1.2,0.4-2.4,0.7-3.7,0.9c-1.3,0.2-2.8,0.2-4.7,0.2c-2.6,0-4.8-0.4-6.3-1.2c-1.6-0.8-2.7-2.2-3.4-4c-0.7-1.9-1.1-4.4-1.1-7.5   s0.4-5.6,1.1-7.5s1.8-3.2,3.4-4S290.2,107.1,292.8,107.1z"></path>		<path class="st54" d="M309.5,107.4c1.4,0,2.8,0,4.2,0c1.4,0,2.9,0,4.3,0.1c1.4,0.1,2.7,0.2,3.8,0.3l-0.3,4.8h-9.2   c-0.5,0-0.9,0.1-1.2,0.4c-0.3,0.3-0.4,0.6-0.4,1.1v11.4c0,0.5,0.1,0.9,0.4,1.1c0.3,0.3,0.7,0.4,1.2,0.4h9.2l0.3,4.8   c-1.2,0.1-2.4,0.2-3.8,0.3c-1.4,0.1-2.8,0.1-4.3,0.1c-1.4,0-2.9,0-4.2,0c-1.6,0-3-0.5-4-1.5c-1-1-1.5-2.3-1.5-3.8v-14.3   c0-1.6,0.5-2.9,1.5-3.8S307.8,107.4,309.5,107.4z M304.6,117.2h15.6v4.5h-15.6V117.2z"></path>		<path class="st54" d="M347,107.5v22.3c0,1.6-0.8,2.4-2.3,2.4h-3c-0.7,0-1.2-0.2-1.6-0.5s-0.7-0.8-1.1-1.5l-6-10.5   c-0.3-0.6-0.6-1.2-0.9-1.9c-0.3-0.7-0.5-1.4-0.7-2.1h-0.3c0.1,0.7,0.2,1.4,0.2,2.1c0.1,0.7,0.1,1.4,0.1,2.1v12.3h-6.3v-22.3   c0-1.6,0.8-2.4,2.4-2.4h3c0.7,0,1.2,0.2,1.6,0.5c0.3,0.3,0.7,0.8,1.1,1.5l5.8,10.1c0.3,0.6,0.7,1.2,1,1.9c0.3,0.7,0.6,1.4,0.9,2.2   h0.3c-0.1-0.7-0.1-1.5-0.2-2.2c0-0.7-0.1-1.4-0.1-2.1l0-11.8H347z"></path>		<path class="st54" d="M370.5,107.5v5.1h-21v-5.1H370.5z M363.4,107.5v24.7h-6.7v-24.7H363.4z"></path>		<path class="st54" d="M383.2,107.1c2.3,0,4.2,0.2,5.6,0.7c1.5,0.5,2.5,1.2,3.2,2.3c0.7,1.1,1,2.6,1,4.5c0,1-0.1,2-0.4,2.9   s-0.8,1.6-1.5,2.1s-1.7,0.9-2.9,1v0.2c0.5,0,0.9,0.2,1.4,0.4c0.5,0.2,1,0.6,1.4,1.2c0.4,0.5,0.8,1.3,0.9,2.2l2,7.6h-7l-1.8-7.4   c-0.2-0.8-0.4-1.3-0.8-1.5s-0.9-0.4-1.6-0.4c-1.7,0-3.1,0-4.3,0c-1.1,0-2.1,0-2.8,0c-0.8,0-1.5-0.1-2.2-0.1l0.1-4.7h9.4   c0.9,0,1.5-0.1,2-0.3c0.5-0.2,0.8-0.5,1-0.9c0.2-0.4,0.3-1.1,0.3-1.8c0-0.8-0.1-1.4-0.3-1.9s-0.5-0.7-1-0.9s-1.1-0.3-2-0.3   c-2.4,0-4.4,0-6,0c-1.6,0-2.7,0.1-3.3,0.1l-0.5-4.6c1-0.1,2-0.2,3-0.3c0.9,0,1.9-0.1,3.1-0.1C380.3,107.1,381.6,107.1,383.2,107.1   z M379.7,107.5v24.7h-6.6v-24.7H379.7z"></path>		<path class="st54" d="M407,107c2,0,3.8,0.2,5.2,0.6c1.4,0.4,2.5,1.1,3.4,2.1s1.5,2.3,1.9,3.9c0.4,1.6,0.6,3.7,0.6,6.3   c0,2.5-0.2,4.6-0.6,6.2c-0.4,1.7-1,3-1.9,3.9c-0.9,1-2,1.7-3.4,2.1c-1.4,0.4-3.1,0.6-5.2,0.6c-2,0-3.7-0.2-5.2-0.6   c-1.4-0.4-2.6-1.1-3.4-2.1c-0.9-1-1.5-2.3-1.9-3.9c-0.4-1.7-0.6-3.7-0.6-6.2c0-2.5,0.2-4.6,0.6-6.3c0.4-1.6,1-2.9,1.9-3.9   c0.9-1,2-1.6,3.4-2.1C403.3,107.2,405,107,407,107z M407,112.1c-1,0-1.9,0.2-2.4,0.6s-1,1.2-1.2,2.3c-0.2,1.1-0.4,2.7-0.4,4.8   c0,2,0.1,3.6,0.4,4.8c0.2,1.1,0.6,1.9,1.2,2.3c0.6,0.4,1.4,0.6,2.4,0.6s1.9-0.2,2.4-0.6c0.6-0.4,1-1.2,1.2-2.3   c0.2-1.1,0.3-2.7,0.3-4.8c0-2-0.1-3.6-0.3-4.8c-0.2-1.1-0.6-1.9-1.2-2.3S408.1,112.1,407,112.1z"></path>	</g>	<g>		<g>			<linearGradient id="SVGID_80_" gradientUnits="userSpaceOnUse" x1="24.8467" y1="19.0422" x2="105.2284" y2="137.8922">				<stop offset="0" style="stop-color:#2A8A70"></stop>				<stop offset="1" style="stop-color:#72AD55"></stop>			</linearGradient>			<path class="st84" d="M67.6,89.7L67.6,89.7c-4.1,0-7.5-3.4-7.5-7.5v0c0-4.1,3.4-7.5,7.5-7.5h0c4.1,0,7.5,3.4,7.5,7.5v0    C75,86.3,71.7,89.7,67.6,89.7z"></path>			<linearGradient id="SVGID_81_" gradientUnits="userSpaceOnUse" x1="54.426" y1="-0.9631" x2="134.8076" y2="117.8869">				<stop offset="0" style="stop-color:#2A8A70"></stop>				<stop offset="1" style="stop-color:#72AD55"></stop>			</linearGradient>			<path class="st85" d="M62.6,20.1L62.6,20.1c-0.4,0.4-0.9,0.4-1.3,0l0,0c-5.5-5.5-5.5-14.4,0-19.9l0,0c0.4-0.4,0.9-0.4,1.3,0l0,0    C68.1,5.8,68.1,14.7,62.6,20.1z"></path>			<linearGradient id="SVGID_82_" gradientUnits="userSpaceOnUse" x1="23.047" y1="20.2594" x2="103.4286" y2="139.1094">				<stop offset="0" style="stop-color:#2A8A70"></stop>				<stop offset="1" style="stop-color:#72AD55"></stop>			</linearGradient>			<path class="st86" d="M31.8,33.6L31.8,33.6c-0.1,0.5-0.6,0.8-1.1,0.6l0,0c-7.5-2.2-11.7-10-9.6-17.4l0,0c0.1-0.5,0.6-0.8,1.1-0.6    l0,0C29.6,18.4,33.9,26.2,31.8,33.6z"></path>			<linearGradient id="SVGID_83_" gradientUnits="userSpaceOnUse" x1="38.6902" y1="9.6795" x2="119.0718" y2="128.5294">				<stop offset="0" style="stop-color:#2A8A70"></stop>				<stop offset="1" style="stop-color:#72AD55"></stop>			</linearGradient>			<path class="st87" d="M58.4,45.3L58.4,45.3c-0.3,0.4-0.9,0.5-1.3,0.2l0,0c-6.3-4.6-7.6-13.4-3.1-19.6l0,0    c0.3-0.4,0.9-0.5,1.3-0.2l0,0C61.6,30.2,63,39,58.4,45.3z"></path>			<linearGradient id="SVGID_84_" gradientUnits="userSpaceOnUse" x1="20.8193" y1="21.7661" x2="101.2009" y2="140.616">				<stop offset="0" style="stop-color:#2A8A70"></stop>				<stop offset="1" style="stop-color:#72AD55"></stop>			</linearGradient>			<path class="st88" d="M48.2,54.5L48.2,54.5c0.1,0.5-0.2,1-0.7,1.1l0,0c-7.6,1.5-15-3.5-16.5-11.1l0,0c-0.1-0.5,0.2-1,0.7-1.1l0,0    C39.3,41.9,46.7,46.9,48.2,54.5z"></path>			<linearGradient id="SVGID_85_" gradientUnits="userSpaceOnUse" x1="6.8963" y1="31.1826" x2="87.2779" y2="150.0326">				<stop offset="0" style="stop-color:#2A8A70"></stop>				<stop offset="1" style="stop-color:#72AD55"></stop>			</linearGradient>			<path class="st89" d="M42.1,70.1L42.1,70.1c0.3,0.4,0.2,1-0.3,1.3l0,0c-6.5,4.2-15.2,2.4-19.5-4.1l0,0c-0.3-0.4-0.2-1,0.3-1.3    l0,0C29.2,61.8,37.9,63.6,42.1,70.1z"></path>			<linearGradient id="SVGID_86_" gradientUnits="userSpaceOnUse" x1="20.4218" y1="22.0349" x2="100.8034" y2="140.8849">				<stop offset="0" style="stop-color:#2A8A70"></stop>				<stop offset="1" style="stop-color:#72AD55"></stop>			</linearGradient>			<path class="st90" d="M60.8,72.7L60.8,72.7c0.2,0.4,0,0.9-0.4,1l0,0c-6.1,2.5-13.1-0.4-15.6-6.5l0,0c-0.2-0.4,0-0.9,0.4-1l0,0    C51.3,63.6,58.3,66.6,60.8,72.7z"></path>			<linearGradient id="SVGID_87_" gradientUnits="userSpaceOnUse" x1="7.6733" y1="30.6571" x2="88.0549" y2="149.507">				<stop offset="0" style="stop-color:#2A8A70"></stop>				<stop offset="1" style="stop-color:#72AD55"></stop>			</linearGradient>			<path class="st91" d="M22.6,46.3L22.6,46.3c0.1,0.5-0.3,1-0.8,1h0C14.1,48.2,7.1,42.7,6.2,35l0,0c-0.1-0.5,0.3-1,0.8-1h0    C14.7,33.1,21.7,38.6,22.6,46.3z"></path>			<linearGradient id="SVGID_88_" gradientUnits="userSpaceOnUse" x1="-4.6144" y1="38.9676" x2="75.7672" y2="157.8176">				<stop offset="0" style="stop-color:#2A8A70"></stop>				<stop offset="1" style="stop-color:#72AD55"></stop>			</linearGradient>			<path class="st92" d="M18.5,63.3L18.5,63.3c0.2,0.5-0.1,1-0.6,1.2l0,0C10.5,66.9,2.6,63,0,55.7l0,0c-0.2-0.5,0.1-1,0.6-1.2l0,0    C8,52,16,55.9,18.5,63.3z"></path>			<linearGradient id="SVGID_89_" gradientUnits="userSpaceOnUse" x1="-12.341" y1="44.1933" x2="68.0406" y2="163.0433">				<stop offset="0" style="stop-color:#2A8A70"></stop>				<stop offset="1" style="stop-color:#72AD55"></stop>			</linearGradient>			<path class="st93" d="M20.6,79L20.6,79c0.3,0.4,0.2,1-0.2,1.3l0,0c-6.2,4.7-15,3.4-19.7-2.8l0,0c-0.3-0.4-0.2-1,0.2-1.3l0,0    C7.1,71.5,15.9,72.8,20.6,79z"></path>			<linearGradient id="SVGID_90_" gradientUnits="userSpaceOnUse" x1="73.6958" y1="12.3404" x2="83.9084" y2="12.3404">				<stop offset="0" style="stop-color:#2A8A70"></stop>				<stop offset="1" style="stop-color:#72AD55"></stop>			</linearGradient>			<path class="st94" d="M75.5,21.7L75.5,21.7c0.2,0.4,0.8,0.6,1.2,0.3l0,0c6.8-3.8,9.1-12.4,5.3-19.2l0,0c-0.2-0.4-0.8-0.6-1.2-0.3    l0,0C74.1,6.4,71.7,15,75.5,21.7z"></path>			<linearGradient id="SVGID_91_" gradientUnits="userSpaceOnUse" x1="64.9779" y1="-8.0997" x2="145.3595" y2="110.7503">				<stop offset="0" style="stop-color:#2A8A70"></stop>				<stop offset="1" style="stop-color:#72AD55"></stop>			</linearGradient>			<path class="st95" d="M75.5,21.7L75.5,21.7c0.2,0.4,0.8,0.6,1.2,0.3l0,0c6.8-3.8,9.1-12.4,5.3-19.2l0,0c-0.2-0.4-0.8-0.6-1.2-0.3    l0,0C74.1,6.4,71.7,15,75.5,21.7z"></path>			<linearGradient id="SVGID_92_" gradientUnits="userSpaceOnUse" x1="39.727" y1="8.9783" x2="120.1086" y2="127.8282">				<stop offset="0" style="stop-color:#2A8A70"></stop>				<stop offset="1" style="stop-color:#72AD55"></stop>			</linearGradient>			<path class="st96" d="M45.4,24.2L45.4,24.2c0.4,0.3,1,0.1,1.3-0.3l0,0c3.9-6.7,1.6-15.3-5.1-19.2l0,0c-0.4-0.3-1-0.1-1.3,0.3l0,0    C36.3,11.7,38.6,20.3,45.4,24.2z"></path>			<linearGradient id="SVGID_93_" gradientUnits="userSpaceOnUse" x1="73.0504" y1="-13.5593" x2="153.432" y2="105.2906">				<stop offset="0" style="stop-color:#2A8A70"></stop>				<stop offset="1" style="stop-color:#72AD55"></stop>			</linearGradient>			<path class="st97" d="M90.9,28.8L90.9,28.8c-0.5,0.1-1-0.2-1.1-0.7l0,0c-1.5-7.6,3.5-15,11.1-16.5l0,0c0.5-0.1,1,0.2,1.1,0.7l0,0    C103.5,20,98.5,27.4,90.9,28.8z"></path>			<linearGradient id="SVGID_94_" gradientUnits="userSpaceOnUse" x1="76.3206" y1="-15.7711" x2="156.7022" y2="103.0789">				<stop offset="0" style="stop-color:#2A8A70"></stop>				<stop offset="1" style="stop-color:#72AD55"></stop>			</linearGradient>			<path class="st98" d="M100.2,37.4L100.2,37.4c0,0.5,0.3,1,0.8,1h0c7.7,0.8,14.6-4.9,15.4-12.6v0c0-0.5-0.3-1-0.8-1h0    C107.9,24,101,29.6,100.2,37.4z"></path>			<linearGradient id="SVGID_95_" gradientUnits="userSpaceOnUse" x1="74.5149" y1="-14.5498" x2="154.8965" y2="104.3002">				<stop offset="0" style="stop-color:#2A8A70"></stop>				<stop offset="1" style="stop-color:#72AD55"></stop>			</linearGradient>			<path class="st99" d="M109.6,54.7L109.6,54.7c-0.4-0.2-0.6-0.8-0.4-1.2l0,0c3.6-6.9,12.1-9.6,19-6v0c0.4,0.2,0.6,0.8,0.4,1.2l0,0    C125,55.6,116.5,58.3,109.6,54.7z"></path>			<linearGradient id="SVGID_96_" gradientUnits="userSpaceOnUse" x1="66.8416" y1="-9.3602" x2="147.2233" y2="109.4898">				<stop offset="0" style="stop-color:#2A8A70"></stop>				<stop offset="1" style="stop-color:#72AD55"></stop>			</linearGradient>			<path class="st100" d="M111.7,70.4L111.7,70.4c-0.4,0.3-0.4,0.9-0.1,1.3l0,0c5.2,5.8,14.1,6.2,19.9,1v0c0.4-0.3,0.4-0.9,0.1-1.3    l0,0C126.3,65.6,117.4,65.2,111.7,70.4z"></path>			<linearGradient id="SVGID_97_" gradientUnits="userSpaceOnUse" x1="53.7824" y1="-0.5279" x2="134.1641" y2="118.3221">				<stop offset="0" style="stop-color:#2A8A70"></stop>				<stop offset="1" style="stop-color:#72AD55"></stop>			</linearGradient>			<path class="st101" d="M91.6,69.9L91.6,69.9c-0.3,0.4-0.2,0.9,0.2,1.2l0,0c5.9,3.9,13.9,2.4,17.8-3.5l0,0    c0.3-0.4,0.2-0.9-0.2-1.2l0,0C103.5,62.5,95.6,64,91.6,69.9z"></path>			<linearGradient id="SVGID_98_" gradientUnits="userSpaceOnUse" x1="56.1262" y1="-2.113" x2="136.5078" y2="116.737">				<stop offset="0" style="stop-color:#2A8A70"></stop>				<stop offset="1" style="stop-color:#72AD55"></stop>			</linearGradient>			<path class="st102" d="M84.4,55.8L84.4,55.8c-0.1,0.4,0.1,0.9,0.6,1l0,0c6.8,2,13.9-1.9,15.9-8.7v0c0.1-0.4-0.1-0.9-0.6-1l0,0    C93.5,45.1,86.4,49,84.4,55.8z"></path>			<linearGradient id="SVGID_99_" gradientUnits="userSpaceOnUse" x1="54.1164" y1="-0.7537" x2="134.498" y2="118.0963">				<stop offset="0" style="stop-color:#2A8A70"></stop>				<stop offset="1" style="stop-color:#72AD55"></stop>			</linearGradient>			<path class="st103" d="M74.3,43.6L74.3,43.6c0.1,0.4,0.6,0.7,1.1,0.5l0,0c6.7-2.3,10.3-9.6,8-16.3l0,0c-0.1-0.4-0.6-0.7-1.1-0.5    l0,0C75.6,29.6,72,36.9,74.3,43.6z"></path>			<linearGradient id="SVGID_100_" gradientUnits="userSpaceOnUse" x1="41.6303" y1="7.691" x2="122.0119" y2="126.541">				<stop offset="0" style="stop-color:#2A8A70"></stop>				<stop offset="1" style="stop-color:#72AD55"></stop>			</linearGradient>			<path class="st104" d="M74.6,71.2L74.6,71.2c-0.2,0.4,0,0.9,0.4,1h0c6.2,2.4,13.1-0.7,15.5-6.9l0,0c0.2-0.4,0-0.9-0.4-1h0    C83.9,61.9,77,65,74.6,71.2z"></path>			<linearGradient id="SVGID_101_" gradientUnits="userSpaceOnUse" x1="37.9129" y1="10.2052" x2="118.2945" y2="129.0552">				<stop offset="0" style="stop-color:#2A8A70"></stop>				<stop offset="1" style="stop-color:#72AD55"></stop>			</linearGradient>			<path class="st105" d="M68,68.2L68,68.2c0.1,0.4,0.6,0.6,1,0.5l0,0c6.3-2.1,9.6-8.9,7.5-15.2l0,0c-0.1-0.4-0.6-0.6-1-0.5l0,0    C69.2,55.2,65.8,62,68,68.2z"></path>			<linearGradient id="SVGID_102_" gradientUnits="userSpaceOnUse" x1="29.1497" y1="16.132" x2="109.5313" y2="134.982">				<stop offset="0" style="stop-color:#2A8A70"></stop>				<stop offset="1" style="stop-color:#72AD55"></stop>			</linearGradient>			<path class="st106" d="M65,68.7L65,68.7c0.4,0,0.8-0.3,0.9-0.7v0c0.6-6.6-4.2-12.4-10.7-13.1h0c-0.4,0-0.8,0.3-0.9,0.7v0    C53.6,62.2,58.4,68.1,65,68.7z"></path>			<linearGradient id="SVGID_103_" gradientUnits="userSpaceOnUse" x1="14.1125" y1="26.3021" x2="94.4941" y2="145.1521">				<stop offset="0" style="stop-color:#2A8A70"></stop>				<stop offset="1" style="stop-color:#72AD55"></stop>			</linearGradient>			<path class="st107" d="M74.6,110.7c-0.9,8.3-0.3,20.3,2.8,33.1c0.2,0.9-0.9,1.4-1.5,0.8c-10.6-12-6.8-17.3-9.4-17.3    c-1.2,0-4.5,11.2-9.8,16.4c-0.6,0.6-1.5,0.2-1.3-0.6c2.4-10.7,5-28.9,5.4-32.5c1.6-15.7-7.7-22.6-14.2-26.8    c-0.7-0.4-0.2-1.5,0.6-1.3c5.7,1.7,15.2,5.4,19.6,13c0.6,1.1,2.2,1.1,2.9,0.1c3.4-5,11.8-14,16-18.4c0.5-0.6,1.5,0,1.2,0.7    c0,0-7.5,14.5-9.4,19.6C76.2,100.8,75,107.3,74.6,110.7z"></path>			<linearGradient id="SVGID_104_" gradientUnits="userSpaceOnUse" x1="31.0991" y1="14.8135" x2="111.4808" y2="133.6635">				<stop offset="0" style="stop-color:#2A8A70"></stop>				<stop offset="1" style="stop-color:#72AD55"></stop>			</linearGradient>			<path class="st108" d="M89.3,113.3c-1.5,7.9,1.9,18.8,4.1,31.7c0.1,0.9-0.6,1.4-1,0.8c-7.4-12-4.7-17.3-6.6-17.3    c-0.9,0,0.5,11.2-3.3,16.4c-0.4,0.6-1,0.2-0.9-0.6c1.7-10.7-4.7-18.7-2.6-32.1c2.5-16.8,7-21.6,10.9-26.3c0.3-0.4,0.9,0,0.7,0.5    c-1.8,3.5-4.1,8.7-2.6,10.5c3.4,4.1,15.9-15.5,20.5-22.1c0.3-0.4,0.9-0.2,0.8,0.3c-0.7,4.7-6.3,15.3-10.5,19.4    C90.1,102.8,90.3,108.1,89.3,113.3z"></path>			<linearGradient id="SVGID_105_" gradientUnits="userSpaceOnUse" x1="43.3806" y1="6.5072" x2="123.7623" y2="125.3571">				<stop offset="0" style="stop-color:#2A8A70"></stop>				<stop offset="1" style="stop-color:#72AD55"></stop>			</linearGradient>			<path class="st109" d="M99.2,85.7c-0.8,2.1-2.8,3.3-4.5,2.7c-1.7-0.6-2.4-2.9-1.6-5c0.8-2.1,2.8-3.3,4.5-2.7    C99.3,81.3,100,83.6,99.2,85.7z"></path>			<linearGradient id="SVGID_106_" gradientUnits="userSpaceOnUse" x1="-7.6468" y1="41.0185" x2="72.7349" y2="159.8684">				<stop offset="0" style="stop-color:#2A8A70"></stop>				<stop offset="1" style="stop-color:#72AD55"></stop>			</linearGradient>			<path class="st110" d="M43.7,113.3c1.5,7.9-1.9,18.8-4.1,31.7c-0.1,0.9,0.6,1.4,1,0.8c7.4-12,4.7-17.3,6.6-17.3    c0.9,0-0.5,11.2,3.3,16.4c0.4,0.6,1,0.2,0.9-0.6c-1.7-10.7,4.4-18.9,4.8-32.2c0.6-19-9.2-21.5-13.1-26.2c-0.3-0.4-0.9,0-0.7,0.5    c1.8,3.5,4.1,8.7,2.6,10.5c-3.4,4.1-15.9-15.5-20.5-22.1c-0.3-0.4-0.9-0.2-0.8,0.3c0.7,4.7,3.4,8.6,6.6,12.9    C37.6,97.5,42.7,108.1,43.7,113.3z"></path>			<linearGradient id="SVGID_107_" gradientUnits="userSpaceOnUse" x1="3.0348" y1="33.7942" x2="83.4164" y2="152.6442">				<stop offset="0" style="stop-color:#2A8A70"></stop>				<stop offset="1" style="stop-color:#72AD55"></stop>			</linearGradient>			<path class="st111" d="M33.8,84.9c0.8,2.1,2.8,3.3,4.5,2.7c1.7-0.6,2.4-2.9,1.6-5s-2.8-3.3-4.5-2.7    C33.7,80.5,32.9,82.8,33.8,84.9z"></path>		</g>		<linearGradient id="SVGID_108_" gradientUnits="userSpaceOnUse" x1="-5.4618" y1="39.5407" x2="74.9199" y2="158.3907">			<stop offset="0" style="stop-color:#2A8A70"></stop>			<stop offset="1" style="stop-color:#72AD55"></stop>		</linearGradient>		<path class="st112" d="M114.7,147.3H17c-1.3,0-2.3-1-2.3-2.3s1-2.3,2.3-2.3h97.7c1.3,0,2.3,1,2.3,2.3S116,147.3,114.7,147.3z"></path>	</g></g><rect x="-92.5" y="-665.7" class="st113" width="595.3" height="270.6"></rect><g>	<path class="st53" d="M173.9-575.1c1.1,0,2.1,0.3,3,1c0.9,0.6,1.4,1.5,1.7,2.6l13.9,47.1h-14.1l-8.9-35c-0.2-0.8-0.4-1.7-0.5-2.7  s-0.3-1.8-0.4-2.7h-2c-0.1,0.8-0.2,1.7-0.4,2.7c-0.2,1-0.4,1.9-0.6,2.7l-8.9,35h-14.1l13.9-47.1c0.3-1.1,0.9-2,1.7-2.6  c0.9-0.6,1.8-1,3-1H173.9z M180.8-546.3v9.9h-26.7v-9.9H180.8z"></path>	<path class="st53" d="M207.9-575.3c2.7,0,5.6,0,8.5,0c2.9,0,5.7,0.1,8.5,0.2c2.8,0.1,5.3,0.3,7.5,0.6l-0.7,9.8h-18  c-1.1,0-2,0.3-2.6,0.8c-0.6,0.6-0.9,1.3-0.9,2.3v37.1h-13.8v-40c0-3.3,1.1-5.9,3.2-7.9C201.7-574.3,204.5-575.3,207.9-575.3z   M197.7-554.2H229v9.3h-31.3V-554.2z"></path>	<path class="st53" d="M259.2-576.1c4.2,0,7.8,0.4,10.7,1.2c2.9,0.8,5.2,2.2,7.1,4.2s3.1,4.7,3.9,8.1c0.8,3.4,1.2,7.7,1.2,12.9  c0,5.1-0.4,9.4-1.2,12.8c-0.8,3.4-2.1,6.1-3.9,8.1s-4.2,3.4-7.1,4.2c-2.9,0.8-6.4,1.2-10.7,1.2c-4.2,0-7.7-0.4-10.6-1.2  c-2.9-0.8-5.3-2.2-7.1-4.2c-1.8-2-3.1-4.7-3.9-8.1c-0.8-3.4-1.2-7.7-1.2-12.8c0-5.2,0.4-9.5,1.2-12.9c0.8-3.4,2.1-6.1,3.9-8.1  c1.8-2,4.2-3.4,7.1-4.2C251.5-575.7,255.1-576.1,259.2-576.1z M259.2-565.6c-2.2,0-3.8,0.4-5,1.3c-1.2,0.9-2,2.5-2.5,4.8  c-0.5,2.3-0.7,5.6-0.7,9.8c0,4.2,0.2,7.5,0.7,9.8c0.5,2.3,1.3,3.9,2.5,4.8c1.2,0.9,2.9,1.3,5,1.3c2.2,0,3.8-0.4,5-1.3  c1.2-0.9,2-2.5,2.5-4.8c0.5-2.3,0.7-5.6,0.7-9.8c0-4.2-0.2-7.5-0.7-9.8c-0.5-2.3-1.3-3.9-2.5-4.8  C263.1-565.1,261.4-565.6,259.2-565.6z"></path>	<path class="st53" d="M310-575.9c2.5,0,4.7,0.1,6.5,0.2c1.8,0.1,3.4,0.3,4.9,0.6c1.5,0.2,3,0.6,4.6,1l-1,10.1  c-1.7-0.1-3.2-0.2-4.6-0.2c-1.4,0-2.9,0-4.6-0.1c-1.6,0-3.6,0-5.8,0c-2,0-3.6,0.4-4.7,1.2c-1.2,0.8-1.9,2.3-2.4,4.4  c-0.4,2.1-0.7,5.1-0.7,8.9s0.2,6.8,0.7,8.9c0.4,2.1,1.2,3.6,2.4,4.4c1.2,0.8,2.7,1.2,4.7,1.2c3.6,0,6.6,0,8.9-0.1  c2.4-0.1,4.8-0.3,7.2-0.5l1,10.1c-2.5,0.8-5,1.4-7.5,1.8s-5.8,0.5-9.6,0.5c-5.4,0-9.8-0.8-13.1-2.5c-3.3-1.7-5.6-4.4-7.1-8.3  c-1.4-3.8-2.2-9-2.2-15.4s0.7-11.6,2.2-15.4c1.4-3.8,3.8-6.6,7.1-8.3C300.2-575.1,304.6-575.9,310-575.9z"></path>	<path class="st53" d="M359.7-575.1c1.1,0,2.1,0.3,3,1c0.9,0.6,1.4,1.5,1.7,2.6l13.9,47.1h-14.1l-8.9-35c-0.2-0.8-0.4-1.7-0.5-2.7  c-0.1-1-0.3-1.8-0.4-2.7h-2c-0.1,0.8-0.2,1.7-0.4,2.7c-0.2,1-0.4,1.9-0.6,2.7l-8.9,35h-14.1l13.9-47.1c0.3-1.1,0.9-2,1.7-2.6  c0.9-0.6,1.8-1,3-1H359.7z M366.7-546.3v9.9H340v-9.9H366.7z"></path>	<path class="st53" d="M417.8-575.1v10.5h-43.2v-10.5H417.8z M403.2-575.1v50.7h-13.8v-50.7H403.2z"></path></g><g>	<path class="st53" d="M155-511.9c2.3,0,4.2,0.2,5.6,0.7c1.5,0.5,2.5,1.2,3.2,2.3c0.7,1.1,1,2.6,1,4.5c0,1-0.1,2-0.4,2.9  c-0.3,0.9-0.8,1.6-1.5,2.1c-0.7,0.5-1.7,0.9-2.9,1v0.2c0.5,0,0.9,0.2,1.4,0.4c0.5,0.2,1,0.6,1.4,1.2c0.4,0.5,0.8,1.3,0.9,2.2l2,7.6  h-7l-1.8-7.4c-0.2-0.8-0.4-1.3-0.8-1.5c-0.4-0.2-0.9-0.4-1.6-0.4c-1.7,0-3.1,0-4.3,0s-2.1,0-2.8,0c-0.8,0-1.5-0.1-2.2-0.1l0.1-4.7  h9.4c0.9,0,1.5-0.1,2-0.3c0.5-0.2,0.8-0.5,1-0.9c0.2-0.4,0.3-1.1,0.3-1.8c0-0.8-0.1-1.4-0.3-1.9s-0.5-0.7-1-0.9  c-0.5-0.2-1.1-0.3-2-0.3c-2.4,0-4.4,0-6,0c-1.6,0-2.7,0.1-3.3,0.1l-0.5-4.6c1-0.1,2-0.2,3-0.3c0.9,0,1.9-0.1,3.1-0.1  S153.5-511.9,155-511.9z M151.6-511.6v24.7H145v-24.7H151.6z"></path>	<path class="st53" d="M174.1-511.7c1.4,0,2.8,0,4.2,0c1.4,0,2.9,0,4.3,0.1c1.4,0.1,2.7,0.2,3.8,0.3l-0.3,4.8h-9.2  c-0.5,0-0.9,0.1-1.2,0.4c-0.3,0.3-0.4,0.6-0.4,1.1v11.4c0,0.5,0.1,0.9,0.4,1.1c0.3,0.3,0.7,0.4,1.2,0.4h9.2l0.3,4.8  c-1.2,0.1-2.4,0.2-3.8,0.3c-1.4,0.1-2.8,0.1-4.3,0.1c-1.4,0-2.9,0-4.2,0c-1.6,0-3-0.5-4-1.5c-1-1-1.5-2.3-1.5-3.8v-14.3  c0-1.6,0.5-2.9,1.5-3.8C171.1-511.2,172.5-511.7,174.1-511.7z M169.2-501.9h15.6v4.5h-15.6V-501.9z"></path>	<path class="st53" d="M200.1-512.1c1.2,0,2.3,0,3.2,0.1c0.9,0.1,1.8,0.2,2.6,0.3c0.8,0.1,1.6,0.3,2.4,0.6l-0.5,4.9  c-0.9,0-1.7,0-2.5-0.1c-0.8,0-1.6,0-2.5,0c-0.8,0-1.8,0-2.8,0c-0.8,0-1.5,0.1-2.1,0.3c-0.6,0.2-1,0.5-1.3,1.1  c-0.3,0.5-0.6,1.3-0.7,2.2c-0.1,0.9-0.2,2.1-0.2,3.6c0,1.8,0.1,3.3,0.3,4.3c0.2,1,0.6,1.7,1.1,2.1c0.5,0.4,1.3,0.6,2.2,0.6  c0.6,0,1.2,0,1.7-0.1c0.5-0.1,1-0.2,1.4-0.4c0.4-0.2,0.8-0.3,1.1-0.4l0.7,2.9c-0.3,0.5-0.8,1-1.5,1.6s-1.5,1.1-2.5,1.5  s-2.2,0.6-3.5,0.6c-1.9,0-3.4-0.4-4.6-1.3c-1.2-0.9-2.1-2.2-2.6-4.1c-0.6-1.9-0.8-4.3-0.8-7.4c0-3.2,0.4-5.7,1.1-7.6  c0.7-1.9,1.9-3.2,3.6-4C195.1-511.7,197.3-512.1,200.1-512.1z M209.3-501.1v14.2h-4.9l-0.9-3.8l-0.6-1.2v-9.2H209.3z"></path>	<path class="st53" d="M219.7-511.6v24.7h-6.6v-24.7H219.7z"></path>	<path class="st53" d="M234.4-512.1c2,0,3.8,0.2,5.2,0.6c1.4,0.4,2.5,1.1,3.4,2.1s1.5,2.3,1.9,3.9c0.4,1.6,0.6,3.7,0.6,6.3  c0,2.5-0.2,4.6-0.6,6.2c-0.4,1.7-1,3-1.9,3.9c-0.9,1-2,1.7-3.4,2.1c-1.4,0.4-3.1,0.6-5.2,0.6c-2,0-3.7-0.2-5.2-0.6  c-1.4-0.4-2.6-1.1-3.4-2.1c-0.9-1-1.5-2.3-1.9-3.9c-0.4-1.7-0.6-3.7-0.6-6.2c0-2.5,0.2-4.6,0.6-6.3c0.4-1.6,1-2.9,1.9-3.9  c0.9-1,2-1.6,3.4-2.1C230.7-511.9,232.4-512.1,234.4-512.1z M234.4-507c-1,0-1.9,0.2-2.4,0.6s-1,1.2-1.2,2.3  c-0.2,1.1-0.4,2.7-0.4,4.8c0,2,0.1,3.6,0.4,4.8c0.2,1.1,0.6,1.9,1.2,2.3c0.6,0.4,1.4,0.6,2.4,0.6s1.9-0.2,2.4-0.6  c0.6-0.4,1-1.2,1.2-2.3c0.2-1.1,0.3-2.7,0.3-4.8c0-2-0.1-3.6-0.3-4.8c-0.2-1.1-0.6-1.9-1.2-2.3S235.4-507,234.4-507z M238.8-521.3  l2.6,4.2l-8.6,3.8L231-516L238.8-521.3z"></path>	<path class="st53" d="M270.9-511.6v22.3c0,1.6-0.8,2.4-2.3,2.4h-3c-0.7,0-1.2-0.2-1.6-0.5s-0.7-0.8-1.1-1.5l-6-10.5  c-0.3-0.6-0.6-1.2-0.9-1.9c-0.3-0.7-0.5-1.4-0.7-2.1H255c0.1,0.7,0.2,1.4,0.2,2.1c0.1,0.7,0.1,1.4,0.1,2.1v12.3H249v-22.3  c0-1.6,0.8-2.4,2.4-2.4h3c0.7,0,1.2,0.2,1.6,0.5c0.3,0.3,0.7,0.8,1.1,1.5l5.8,10.1c0.3,0.6,0.7,1.2,1,1.9c0.3,0.7,0.6,1.4,0.9,2.2  h0.3c-0.1-0.7-0.1-1.5-0.2-2.2c0-0.7-0.1-1.4-0.1-2.1l0-11.8H270.9z"></path>	<path class="st53" d="M292.8-512c1.2,0,2.3,0,3.2,0.1s1.7,0.2,2.4,0.3c0.7,0.1,1.5,0.3,2.2,0.5l-0.5,4.9c-0.8,0-1.6-0.1-2.3-0.1  c-0.7,0-1.4,0-2.2,0c-0.8,0-1.7,0-2.8,0c-1,0-1.7,0.2-2.3,0.6c-0.6,0.4-0.9,1.1-1.2,2.1c-0.2,1-0.3,2.5-0.3,4.3  c0,1.9,0.1,3.3,0.3,4.3c0.2,1,0.6,1.7,1.2,2.1c0.6,0.4,1.3,0.6,2.3,0.6c1.7,0,3.2,0,4.3-0.1c1.2,0,2.3-0.1,3.5-0.2l0.5,4.9  c-1.2,0.4-2.4,0.7-3.7,0.9c-1.3,0.2-2.8,0.2-4.7,0.2c-2.6,0-4.8-0.4-6.3-1.2c-1.6-0.8-2.7-2.2-3.4-4c-0.7-1.9-1.1-4.4-1.1-7.5  s0.4-5.6,1.1-7.5s1.8-3.2,3.4-4S290.2-512,292.8-512z"></path>	<path class="st53" d="M309.5-511.7c1.4,0,2.8,0,4.2,0c1.4,0,2.9,0,4.3,0.1c1.4,0.1,2.7,0.2,3.8,0.3l-0.3,4.8h-9.2  c-0.5,0-0.9,0.1-1.2,0.4c-0.3,0.3-0.4,0.6-0.4,1.1v11.4c0,0.5,0.1,0.9,0.4,1.1c0.3,0.3,0.7,0.4,1.2,0.4h9.2l0.3,4.8  c-1.2,0.1-2.4,0.2-3.8,0.3c-1.4,0.1-2.8,0.1-4.3,0.1c-1.4,0-2.9,0-4.2,0c-1.6,0-3-0.5-4-1.5c-1-1-1.5-2.3-1.5-3.8v-14.3  c0-1.6,0.5-2.9,1.5-3.8S307.8-511.7,309.5-511.7z M304.6-501.9h15.6v4.5h-15.6V-501.9z"></path>	<path class="st53" d="M347-511.6v22.3c0,1.6-0.8,2.4-2.3,2.4h-3c-0.7,0-1.2-0.2-1.6-0.5s-0.7-0.8-1.1-1.5l-6-10.5  c-0.3-0.6-0.6-1.2-0.9-1.9c-0.3-0.7-0.5-1.4-0.7-2.1h-0.3c0.1,0.7,0.2,1.4,0.2,2.1c0.1,0.7,0.1,1.4,0.1,2.1v12.3h-6.3v-22.3  c0-1.6,0.8-2.4,2.4-2.4h3c0.7,0,1.2,0.2,1.6,0.5c0.3,0.3,0.7,0.8,1.1,1.5l5.8,10.1c0.3,0.6,0.7,1.2,1,1.9c0.3,0.7,0.6,1.4,0.9,2.2  h0.3c-0.1-0.7-0.1-1.5-0.2-2.2c0-0.7-0.1-1.4-0.1-2.1l0-11.8H347z"></path>	<path class="st53" d="M370.5-511.6v5.1h-21v-5.1H370.5z M363.4-511.6v24.7h-6.7v-24.7H363.4z"></path>	<path class="st53" d="M383.2-511.9c2.3,0,4.2,0.2,5.6,0.7c1.5,0.5,2.5,1.2,3.2,2.3c0.7,1.1,1,2.6,1,4.5c0,1-0.1,2-0.4,2.9  s-0.8,1.6-1.5,2.1s-1.7,0.9-2.9,1v0.2c0.5,0,0.9,0.2,1.4,0.4c0.5,0.2,1,0.6,1.4,1.2c0.4,0.5,0.8,1.3,0.9,2.2l2,7.6h-7l-1.8-7.4  c-0.2-0.8-0.4-1.3-0.8-1.5s-0.9-0.4-1.6-0.4c-1.7,0-3.1,0-4.3,0c-1.1,0-2.1,0-2.8,0c-0.8,0-1.5-0.1-2.2-0.1l0.1-4.7h9.4  c0.9,0,1.5-0.1,2-0.3c0.5-0.2,0.8-0.5,1-0.9c0.2-0.4,0.3-1.1,0.3-1.8c0-0.8-0.1-1.4-0.3-1.9s-0.5-0.7-1-0.9s-1.1-0.3-2-0.3  c-2.4,0-4.4,0-6,0c-1.6,0-2.7,0.1-3.3,0.1l-0.5-4.6c1-0.1,2-0.2,3-0.3c0.9,0,1.9-0.1,3.1-0.1C380.3-511.9,381.6-511.9,383.2-511.9z   M379.7-511.6v24.7h-6.6v-24.7H379.7z"></path>	<path class="st53" d="M407-512.1c2,0,3.8,0.2,5.2,0.6c1.4,0.4,2.5,1.1,3.4,2.1s1.5,2.3,1.9,3.9c0.4,1.6,0.6,3.7,0.6,6.3  c0,2.5-0.2,4.6-0.6,6.2c-0.4,1.7-1,3-1.9,3.9c-0.9,1-2,1.7-3.4,2.1c-1.4,0.4-3.1,0.6-5.2,0.6c-2,0-3.7-0.2-5.2-0.6  c-1.4-0.4-2.6-1.1-3.4-2.1c-0.9-1-1.5-2.3-1.9-3.9c-0.4-1.7-0.6-3.7-0.6-6.2c0-2.5,0.2-4.6,0.6-6.3c0.4-1.6,1-2.9,1.9-3.9  c0.9-1,2-1.6,3.4-2.1C403.3-511.9,405-512.1,407-512.1z M407-507c-1,0-1.9,0.2-2.4,0.6s-1,1.2-1.2,2.3c-0.2,1.1-0.4,2.7-0.4,4.8  c0,2,0.1,3.6,0.4,4.8c0.2,1.1,0.6,1.9,1.2,2.3c0.6,0.4,1.4,0.6,2.4,0.6s1.9-0.2,2.4-0.6c0.6-0.4,1-1.2,1.2-2.3  c0.2-1.1,0.3-2.7,0.3-4.8c0-2-0.1-3.6-0.3-4.8c-0.2-1.1-0.6-1.9-1.2-2.3S408.1-507,407-507z"></path></g><g>	<g>		<path class="st53" d="M67.6-529.4L67.6-529.4c-4.1,0-7.5-3.4-7.5-7.5l0,0c0-4.1,3.4-7.5,7.5-7.5h0c4.1,0,7.5,3.4,7.5,7.5l0,0   C75-532.7,71.7-529.4,67.6-529.4z"></path>		<path class="st53" d="M62.6-598.9L62.6-598.9c-0.4,0.4-0.9,0.4-1.3,0l0,0c-5.5-5.5-5.5-14.4,0-19.9h0c0.4-0.4,0.9-0.4,1.3,0h0   C68.1-613.3,68.1-604.4,62.6-598.9z"></path>		<path class="st53" d="M31.8-585.4L31.8-585.4c-0.1,0.5-0.6,0.8-1.1,0.6h0c-7.5-2.2-11.7-10-9.6-17.4h0c0.1-0.5,0.6-0.8,1.1-0.6h0   C29.6-600.7,33.9-592.9,31.8-585.4z"></path>		<path class="st53" d="M58.4-573.8L58.4-573.8c-0.3,0.4-0.9,0.5-1.3,0.2h0c-6.3-4.6-7.6-13.4-3.1-19.6h0c0.3-0.4,0.9-0.5,1.3-0.2h0   C61.6-588.8,63-580,58.4-573.8z"></path>		<path class="st53" d="M48.2-564.5L48.2-564.5c0.1,0.5-0.2,1-0.7,1.1h0c-7.6,1.5-15-3.5-16.5-11.1h0c-0.1-0.5,0.2-1,0.7-1.1h0   C39.3-577.1,46.7-572.1,48.2-564.5z"></path>		<path class="st53" d="M42.1-549L42.1-549c0.3,0.4,0.2,1-0.3,1.3h0c-6.5,4.2-15.2,2.4-19.5-4.1h0c-0.3-0.4-0.2-1,0.3-1.3h0   C29.2-557.3,37.9-555.5,42.1-549z"></path>		<path class="st53" d="M60.8-546.4L60.8-546.4c0.2,0.4,0,0.9-0.4,1h0c-6.1,2.5-13.1-0.4-15.6-6.5h0c-0.2-0.4,0-0.9,0.4-1l0,0   C51.3-555.4,58.3-552.5,60.8-546.4z"></path>		<path class="st53" d="M22.6-572.8L22.6-572.8c0.1,0.5-0.3,1-0.8,1h0c-7.7,0.9-14.7-4.6-15.6-12.3h0c-0.1-0.5,0.3-1,0.8-1h0   C14.7-586,21.7-580.5,22.6-572.8z"></path>		<path class="st53" d="M18.5-555.8L18.5-555.8c0.2,0.5-0.1,1-0.6,1.2h0c-7.3,2.5-15.3-1.4-17.8-8.8h0c-0.2-0.5,0.1-1,0.6-1.2h0   C8-567,16-563.1,18.5-555.8z"></path>		<path class="st53" d="M20.6-540.1L20.6-540.1c0.3,0.4,0.2,1-0.2,1.3h0c-6.2,4.7-15,3.4-19.7-2.8h0c-0.3-0.4-0.2-1,0.2-1.3l0,0   C7.1-547.5,15.9-546.3,20.6-540.1z"></path>		<path class="st53" d="M75.5-597.3L75.5-597.3c0.2,0.4,0.8,0.6,1.2,0.3h0c6.8-3.8,9.1-12.4,5.3-19.2h0c-0.2-0.4-0.8-0.6-1.2-0.3h0   C74.1-612.6,71.7-604.1,75.5-597.3z"></path>		<path class="st53" d="M75.5-597.3L75.5-597.3c0.2,0.4,0.8,0.6,1.2,0.3h0c6.8-3.8,9.1-12.4,5.3-19.2h0c-0.2-0.4-0.8-0.6-1.2-0.3h0   C74.1-612.6,71.7-604.1,75.5-597.3z"></path>		<path class="st53" d="M45.4-594.9L45.4-594.9c0.4,0.3,1,0.1,1.3-0.3h0c3.9-6.7,1.6-15.3-5.1-19.2h0c-0.4-0.3-1-0.1-1.3,0.3h0   C36.3-607.3,38.6-598.7,45.4-594.9z"></path>		<path class="st53" d="M90.9-590.2L90.9-590.2c-0.5,0.1-1-0.2-1.1-0.7h0c-1.5-7.6,3.5-15,11.1-16.5h0c0.5-0.1,1,0.2,1.1,0.7h0   C103.5-599.1,98.5-591.7,90.9-590.2z"></path>		<path class="st53" d="M100.2-581.7L100.2-581.7c0,0.5,0.3,1,0.8,1h0c7.7,0.8,14.6-4.9,15.4-12.6l0,0c0-0.5-0.3-1-0.8-1h0   C107.9-595.1,101-589.4,100.2-581.7z"></path>		<path class="st53" d="M109.6-564.3L109.6-564.3c-0.4-0.2-0.6-0.8-0.4-1.2l0,0c3.6-6.9,12.1-9.6,19-6l0,0c0.4,0.2,0.6,0.8,0.4,1.2   h0C125-563.4,116.5-560.7,109.6-564.3z"></path>		<path class="st53" d="M111.7-548.6L111.7-548.6c-0.4,0.3-0.4,0.9-0.1,1.3h0c5.2,5.8,14.1,6.2,19.9,1l0,0c0.4-0.3,0.4-0.9,0.1-1.3   h0C126.3-553.4,117.4-553.9,111.7-548.6z"></path>		<path class="st53" d="M91.6-549.1L91.6-549.1c-0.3,0.4-0.2,0.9,0.2,1.2h0c5.9,3.9,13.9,2.4,17.8-3.5h0c0.3-0.4,0.2-0.9-0.2-1.2   l0,0C103.5-556.6,95.6-555,91.6-549.1z"></path>		<path class="st53" d="M84.4-563.3L84.4-563.3c-0.1,0.4,0.1,0.9,0.6,1l0,0c6.8,2,13.9-1.9,15.9-8.7l0,0c0.1-0.4-0.1-0.9-0.6-1h0   C93.5-574,86.4-570.1,84.4-563.3z"></path>		<path class="st53" d="M74.3-575.4L74.3-575.4c0.1,0.4,0.6,0.7,1.1,0.5h0c6.7-2.3,10.3-9.6,8-16.3h0c-0.1-0.4-0.6-0.7-1.1-0.5h0   C75.6-589.4,72-582.1,74.3-575.4z"></path>		<path class="st53" d="M74.6-547.9L74.6-547.9c-0.2,0.4,0,0.9,0.4,1h0c6.2,2.4,13.1-0.7,15.5-6.9h0c0.2-0.4,0-0.9-0.4-1h0   C83.9-557.1,77-554,74.6-547.9z"></path>		<path class="st53" d="M68-550.8L68-550.8c0.1,0.4,0.6,0.6,1,0.5h0c6.3-2.1,9.6-8.9,7.5-15.2h0c-0.1-0.4-0.6-0.6-1-0.5h0   C69.2-563.9,65.8-557.1,68-550.8z"></path>		<path class="st53" d="M65-550.3L65-550.3c0.4,0,0.8-0.3,0.9-0.7v0c0.6-6.6-4.2-12.4-10.7-13.1h0c-0.4,0-0.8,0.3-0.9,0.7l0,0   C53.6-556.8,58.4-551,65-550.3z"></path>		<path class="st53" d="M74.6-508.4c-0.9,8.3-0.3,20.3,2.8,33.1c0.2,0.9-0.9,1.4-1.5,0.8c-10.6-12-6.8-17.3-9.4-17.3   c-1.2,0-4.5,11.2-9.8,16.4c-0.6,0.6-1.5,0.2-1.3-0.6c2.4-10.7,5-28.9,5.4-32.5c1.6-15.7-7.7-22.6-14.2-26.8   c-0.7-0.4-0.2-1.5,0.6-1.3c5.7,1.7,15.2,5.4,19.6,13c0.6,1.1,2.2,1.1,2.9,0.1c3.4-5,11.8-14,16-18.4c0.5-0.6,1.5,0,1.2,0.7   c0,0-7.5,14.5-9.4,19.6C76.2-518.2,75-511.7,74.6-508.4z"></path>		<path class="st53" d="M89.3-505.8c-1.5,7.9,1.9,18.8,4.1,31.7c0.1,0.9-0.6,1.4-1,0.8c-7.4-12-4.7-17.3-6.6-17.3   c-0.9,0,0.5,11.2-3.3,16.4c-0.4,0.6-1,0.2-0.9-0.6c1.7-10.7-4.7-18.7-2.6-32.1c2.5-16.8,7-21.6,10.9-26.3c0.3-0.4,0.9,0,0.7,0.5   c-1.8,3.5-4.1,8.7-2.6,10.5c3.4,4.1,15.9-15.5,20.5-22.1c0.3-0.4,0.9-0.2,0.8,0.3c-0.7,4.7-6.3,15.3-10.5,19.4   C90.1-516.2,90.3-510.9,89.3-505.8z"></path>					<ellipse transform="matrix(0.3587 -0.9335 0.9335 0.3587 560.6183 -253.0482)" class="st53" cx="96.1" cy="-534.5" rx="4.1" ry="3.3"></ellipse>		<path class="st53" d="M43.7-505.8c1.5,7.9-1.9,18.8-4.1,31.7c-0.1,0.9,0.6,1.4,1,0.8c7.4-12,4.7-17.3,6.6-17.3   c0.9,0-0.5,11.2,3.3,16.4c0.4,0.6,1,0.2,0.9-0.6c-1.7-10.7,4.4-18.9,4.8-32.2c0.6-19-9.2-21.5-13.1-26.2c-0.3-0.4-0.9,0-0.7,0.5   c1.8,3.5,4.1,8.7,2.6,10.5c-3.4,4.1-15.9-15.5-20.5-22.1c-0.3-0.4-0.9-0.2-0.8,0.3c0.7,4.7,3.4,8.6,6.6,12.9   C37.6-521.5,42.7-510.9,43.7-505.8z"></path>					<ellipse transform="matrix(0.9335 -0.3587 0.3587 0.9335 194.4638 -22.4163)" class="st53" cx="36.8" cy="-535.3" rx="3.3" ry="4.1"></ellipse>	</g>	<path class="st53" d="M114.7-471.8H17c-1.3,0-2.3-1-2.3-2.3c0-1.3,1-2.3,2.3-2.3h97.7c1.3,0,2.3,1,2.3,2.3  C117-472.8,116-471.8,114.7-471.8z"></path></g><rect x="-343.2" y="-423.7" class="st114" width="235.4" height="235.4"></rect></svg>